<svg xmlns="http://www.w3.org/2000/svg" xmlns:xlink="http://www.w3.org/1999/xlink" width="361" zoomAndPan="magnify" viewBox="0 0 270.75 62.999997" height="84" preserveAspectRatio="xMidYMid meet" version="1.0"><defs><g/><clipPath id="ff2e1ff937"><path d="M 50.621094 4.230469 L 86.585938 4.230469 L 86.585938 37 L 50.621094 37 Z M 50.621094 4.230469 " clip-rule="nonzero"/></clipPath></defs><g clip-path="url(#ff2e1ff937)"><path fill="#4ea8de" d="M 80.164062 15.25 C 79.792969 15.121094 79.40625 15 79.007812 14.886719 C 79.074219 14.621094 79.136719 14.355469 79.1875 14.097656 C 80.0625 9.855469 79.492188 6.433594 77.539062 5.308594 C 75.667969 4.230469 72.605469 5.355469 69.515625 8.046875 C 69.214844 8.304688 68.917969 8.578125 68.621094 8.867188 C 68.421875 8.675781 68.222656 8.492188 68.027344 8.316406 C 64.785156 5.441406 61.539062 4.226562 59.589844 5.355469 C 57.71875 6.4375 57.164062 9.652344 57.953125 13.675781 C 58.027344 14.0625 58.117188 14.460938 58.214844 14.863281 C 57.757812 14.996094 57.3125 15.132812 56.890625 15.28125 C 53.089844 16.605469 50.664062 18.683594 50.664062 20.835938 C 50.664062 23.058594 53.269531 25.289062 57.226562 26.640625 C 57.535156 26.75 57.859375 26.847656 58.195312 26.945312 C 58.085938 27.378906 57.992188 27.808594 57.914062 28.226562 C 57.164062 32.179688 57.75 35.316406 59.613281 36.390625 C 61.539062 37.503906 64.773438 36.359375 67.921875 33.609375 C 68.171875 33.390625 68.421875 33.160156 68.671875 32.917969 C 68.996094 33.230469 69.320312 33.527344 69.640625 33.804688 C 72.691406 36.429688 75.703125 37.488281 77.566406 36.410156 C 79.488281 35.296875 80.117188 31.921875 79.300781 27.820312 C 79.242188 27.507812 79.167969 27.1875 79.089844 26.863281 C 79.316406 26.796875 79.539062 26.726562 79.753906 26.65625 C 83.867188 25.289062 86.542969 23.089844 86.542969 20.835938 C 86.542969 18.675781 84.039062 16.585938 80.164062 15.25 Z M 79.273438 25.199219 C 79.078125 25.265625 78.875 25.328125 78.671875 25.386719 C 78.214844 23.949219 77.605469 22.421875 76.851562 20.84375 C 77.570312 19.300781 78.15625 17.792969 78.597656 16.363281 C 78.964844 16.46875 79.320312 16.582031 79.664062 16.699219 C 82.984375 17.84375 85.011719 19.53125 85.011719 20.835938 C 85.011719 22.222656 82.824219 24.023438 79.273438 25.199219 Z M 77.796875 28.117188 C 78.160156 29.933594 78.210938 31.574219 77.972656 32.855469 C 77.757812 34.007812 77.328125 34.773438 76.796875 35.082031 C 75.664062 35.738281 73.246094 34.886719 70.640625 32.640625 C 70.339844 32.382812 70.039062 32.109375 69.738281 31.820312 C 70.75 30.714844 71.757812 29.429688 72.746094 28 C 74.480469 27.847656 76.117188 27.59375 77.605469 27.25 C 77.679688 27.546875 77.742188 27.835938 77.796875 28.117188 Z M 62.898438 34.96875 C 61.792969 35.359375 60.914062 35.371094 60.378906 35.0625 C 59.25 34.410156 58.777344 31.890625 59.417969 28.511719 C 59.492188 28.125 59.582031 27.726562 59.683594 27.320312 C 61.152344 27.644531 62.777344 27.878906 64.515625 28.019531 C 65.511719 29.417969 66.550781 30.699219 67.597656 31.824219 C 67.367188 32.046875 67.140625 32.257812 66.914062 32.453125 C 65.519531 33.671875 64.125 34.535156 62.898438 34.96875 Z M 57.722656 25.191406 C 55.972656 24.59375 54.527344 23.816406 53.535156 22.96875 C 52.644531 22.207031 52.195312 21.449219 52.195312 20.835938 C 52.195312 19.527344 54.144531 17.863281 57.394531 16.730469 C 57.789062 16.589844 58.199219 16.460938 58.628906 16.339844 C 59.078125 17.800781 59.667969 19.328125 60.378906 20.871094 C 59.65625 22.4375 59.058594 23.988281 58.605469 25.46875 C 58.300781 25.378906 58.003906 25.289062 57.722656 25.191406 Z M 59.457031 13.382812 C 58.78125 9.933594 59.230469 7.335938 60.355469 6.683594 C 61.558594 5.988281 64.210938 6.980469 67.007812 9.460938 C 67.1875 9.621094 67.367188 9.789062 67.546875 9.960938 C 66.503906 11.078125 65.476562 12.351562 64.492188 13.742188 C 62.804688 13.898438 61.1875 14.148438 59.703125 14.488281 C 59.609375 14.109375 59.527344 13.742188 59.457031 13.382812 Z M 74.933594 17.203125 C 74.578125 16.589844 74.214844 15.992188 73.84375 15.410156 C 74.988281 15.554688 76.082031 15.746094 77.113281 15.980469 C 76.804688 16.972656 76.417969 18.007812 75.964844 19.070312 C 75.640625 18.453125 75.296875 17.828125 74.933594 17.203125 Z M 68.621094 11.054688 C 69.328125 11.820312 70.035156 12.675781 70.734375 13.605469 C 70.03125 13.570312 69.320312 13.554688 68.605469 13.554688 C 67.894531 13.554688 67.191406 13.570312 66.492188 13.601562 C 67.1875 12.683594 67.902344 11.828125 68.621094 11.054688 Z M 62.269531 17.214844 C 61.914062 17.828125 61.578125 18.449219 61.257812 19.070312 C 60.808594 18.011719 60.429688 16.96875 60.117188 15.964844 C 61.140625 15.734375 62.230469 15.546875 63.371094 15.40625 C 62.992188 15.992188 62.625 16.597656 62.269531 17.214844 Z M 63.402344 26.371094 C 62.226562 26.242188 61.117188 26.0625 60.09375 25.839844 C 60.414062 24.816406 60.800781 23.757812 61.257812 22.675781 C 61.578125 23.292969 61.917969 23.914062 62.277344 24.53125 C 62.640625 25.160156 63.015625 25.773438 63.402344 26.371094 Z M 68.664062 30.722656 C 67.9375 29.9375 67.210938 29.070312 66.503906 28.140625 C 67.191406 28.164062 67.890625 28.179688 68.605469 28.179688 C 69.335938 28.179688 70.058594 28.164062 70.769531 28.132812 C 70.070312 29.082031 69.367188 29.949219 68.664062 30.722656 Z M 75.980469 22.621094 C 76.457031 23.710938 76.863281 24.769531 77.183594 25.777344 C 76.144531 26.011719 75.019531 26.203125 73.839844 26.347656 C 74.210938 25.757812 74.578125 25.144531 74.941406 24.519531 C 75.304688 23.886719 75.652344 23.25 75.980469 22.621094 Z M 73.609375 23.753906 C 73.050781 24.726562 72.472656 25.65625 71.890625 26.53125 C 70.824219 26.605469 69.726562 26.644531 68.605469 26.644531 C 67.488281 26.644531 66.402344 26.613281 65.355469 26.542969 C 64.746094 25.65625 64.160156 24.726562 63.601562 23.761719 C 63.046875 22.804688 62.535156 21.835938 62.070312 20.871094 C 62.535156 19.90625 63.042969 18.9375 63.597656 17.980469 C 64.152344 17.019531 64.734375 16.089844 65.335938 15.210938 C 66.402344 15.128906 67.5 15.085938 68.605469 15.085938 C 69.714844 15.085938 70.808594 15.128906 71.878906 15.210938 C 72.472656 16.085938 73.050781 17.007812 73.605469 17.972656 C 74.167969 18.941406 74.6875 19.90625 75.152344 20.851562 C 74.6875 21.808594 74.171875 22.785156 73.609375 23.753906 Z M 76.773438 6.636719 C 77.976562 7.328125 78.441406 10.125 77.6875 13.789062 C 77.640625 14.023438 77.585938 14.261719 77.527344 14.5 C 76.035156 14.160156 74.421875 13.902344 72.730469 13.742188 C 71.742188 12.339844 70.722656 11.0625 69.695312 9.957031 C 69.972656 9.695312 70.246094 9.441406 70.519531 9.203125 C 73.167969 6.898438 75.644531 5.984375 76.773438 6.636719 Z M 68.605469 17.628906 C 70.375 17.628906 71.808594 19.0625 71.808594 20.835938 C 71.808594 22.601562 70.375 24.039062 68.605469 24.039062 C 66.835938 24.039062 65.398438 22.601562 65.398438 20.835938 C 65.398438 19.0625 66.835938 17.628906 68.605469 17.628906 Z M 68.605469 17.628906 " fill-opacity="1" fill-rule="nonzero"/></g><g fill="#8284fa" fill-opacity="0.4"><g transform="translate(93.766306, 31.717897)"><g><path d="M 14.28125 -17.828125 L 14.28125 -14.859375 L 9.140625 -14.859375 L 9.140625 0 L 5.625 0 L 5.625 -14.859375 L 0.484375 -14.859375 L 0.484375 -17.828125 Z M 14.28125 -17.828125 "/></g></g></g><g fill="#8284fa" fill-opacity="0.4"><g transform="translate(108.545269, 31.717897)"><g><path d="M 7.8125 0.25 C 6.5 0.25 5.34375 -0.015625 4.34375 -0.546875 C 3.351562 -1.085938 2.582031 -1.878906 2.03125 -2.921875 C 1.476562 -3.972656 1.203125 -5.238281 1.203125 -6.71875 C 1.203125 -8.195312 1.476562 -9.457031 2.03125 -10.5 C 2.582031 -11.550781 3.351562 -12.347656 4.34375 -12.890625 C 5.34375 -13.429688 6.5 -13.703125 7.8125 -13.703125 C 9.132812 -13.703125 10.289062 -13.429688 11.28125 -12.890625 C 12.28125 -12.347656 13.054688 -11.550781 13.609375 -10.5 C 14.160156 -9.457031 14.4375 -8.195312 14.4375 -6.71875 C 14.4375 -5.238281 14.160156 -3.972656 13.609375 -2.921875 C 13.054688 -1.878906 12.28125 -1.085938 11.28125 -0.546875 C 10.289062 -0.015625 9.132812 0.25 7.8125 0.25 Z M 7.8125 -2.609375 C 9.90625 -2.609375 10.953125 -3.976562 10.953125 -6.71875 C 10.953125 -8.132812 10.679688 -9.175781 10.140625 -9.84375 C 9.609375 -10.507812 8.832031 -10.84375 7.8125 -10.84375 C 5.726562 -10.84375 4.6875 -9.46875 4.6875 -6.71875 C 4.6875 -3.976562 5.726562 -2.609375 7.8125 -2.609375 Z M 7.8125 -2.609375 "/></g></g></g><g fill="#8284fa" fill-opacity="0.4"><g transform="translate(124.177803, 31.717897)"><g/></g></g><g fill="#8284fa" fill-opacity="0.4"><g transform="translate(130.067445, 31.717897)"><g><path d="M 8.734375 -17.828125 C 11.617188 -17.828125 13.820312 -17.078125 15.34375 -15.578125 C 16.875 -14.085938 17.640625 -11.863281 17.640625 -8.90625 C 17.640625 -5.96875 16.875 -3.75 15.34375 -2.25 C 13.820312 -0.75 11.617188 0 8.734375 0 L 2.3125 0 L 2.3125 -17.828125 Z M 8.515625 -2.96875 C 10.359375 -2.96875 11.734375 -3.4375 12.640625 -4.375 C 13.554688 -5.3125 14.015625 -6.820312 14.015625 -8.90625 C 14.015625 -11 13.554688 -12.515625 12.640625 -13.453125 C 11.734375 -14.390625 10.359375 -14.859375 8.515625 -14.859375 L 5.84375 -14.859375 L 5.84375 -2.96875 Z M 8.515625 -2.96875 "/></g></g></g><g fill="#8284fa" fill-opacity="0.4"><g transform="translate(149.12646, 31.717897)"><g><path d="M 7.8125 0.25 C 6.5 0.25 5.34375 -0.015625 4.34375 -0.546875 C 3.351562 -1.085938 2.582031 -1.878906 2.03125 -2.921875 C 1.476562 -3.972656 1.203125 -5.238281 1.203125 -6.71875 C 1.203125 -8.195312 1.476562 -9.457031 2.03125 -10.5 C 2.582031 -11.550781 3.351562 -12.347656 4.34375 -12.890625 C 5.34375 -13.429688 6.5 -13.703125 7.8125 -13.703125 C 9.132812 -13.703125 10.289062 -13.429688 11.28125 -12.890625 C 12.28125 -12.347656 13.054688 -11.550781 13.609375 -10.5 C 14.160156 -9.457031 14.4375 -8.195312 14.4375 -6.71875 C 14.4375 -5.238281 14.160156 -3.972656 13.609375 -2.921875 C 13.054688 -1.878906 12.28125 -1.085938 11.28125 -0.546875 C 10.289062 -0.015625 9.132812 0.25 7.8125 0.25 Z M 7.8125 -2.609375 C 9.90625 -2.609375 10.953125 -3.976562 10.953125 -6.71875 C 10.953125 -8.132812 10.679688 -9.175781 10.140625 -9.84375 C 9.609375 -10.507812 8.832031 -10.84375 7.8125 -10.84375 C 5.726562 -10.84375 4.6875 -9.46875 4.6875 -6.71875 C 4.6875 -3.976562 5.726562 -2.609375 7.8125 -2.609375 Z M 7.8125 -2.609375 "/></g></g></g><g fill="#4ea8de" fill-opacity="1"><g transform="translate(92.662483, 30.61407)"><g><path d="M 14.28125 -17.828125 L 14.28125 -14.859375 L 9.140625 -14.859375 L 9.140625 0 L 5.625 0 L 5.625 -14.859375 L 0.484375 -14.859375 L 0.484375 -17.828125 Z M 14.28125 -17.828125 "/></g></g></g><g fill="#4ea8de" fill-opacity="1"><g transform="translate(107.441446, 30.61407)"><g><path d="M 7.8125 0.25 C 6.5 0.25 5.34375 -0.015625 4.34375 -0.546875 C 3.351562 -1.085938 2.582031 -1.878906 2.03125 -2.921875 C 1.476562 -3.972656 1.203125 -5.238281 1.203125 -6.71875 C 1.203125 -8.195312 1.476562 -9.457031 2.03125 -10.5 C 2.582031 -11.550781 3.351562 -12.347656 4.34375 -12.890625 C 5.34375 -13.429688 6.5 -13.703125 7.8125 -13.703125 C 9.132812 -13.703125 10.289062 -13.429688 11.28125 -12.890625 C 12.28125 -12.347656 13.054688 -11.550781 13.609375 -10.5 C 14.160156 -9.457031 14.4375 -8.195312 14.4375 -6.71875 C 14.4375 -5.238281 14.160156 -3.972656 13.609375 -2.921875 C 13.054688 -1.878906 12.28125 -1.085938 11.28125 -0.546875 C 10.289062 -0.015625 9.132812 0.25 7.8125 0.25 Z M 7.8125 -2.609375 C 9.90625 -2.609375 10.953125 -3.976562 10.953125 -6.71875 C 10.953125 -8.132812 10.679688 -9.175781 10.140625 -9.84375 C 9.609375 -10.507812 8.832031 -10.84375 7.8125 -10.84375 C 5.726562 -10.84375 4.6875 -9.46875 4.6875 -6.71875 C 4.6875 -3.976562 5.726562 -2.609375 7.8125 -2.609375 Z M 7.8125 -2.609375 "/></g></g></g><g fill="#4ea8de" fill-opacity="1"><g transform="translate(123.07398, 30.61407)"><g/></g></g><g fill="#4ea8de" fill-opacity="1"><g transform="translate(128.963622, 30.61407)"><g><path d="M 8.734375 -17.828125 C 11.617188 -17.828125 13.820312 -17.078125 15.34375 -15.578125 C 16.875 -14.085938 17.640625 -11.863281 17.640625 -8.90625 C 17.640625 -5.96875 16.875 -3.75 15.34375 -2.25 C 13.820312 -0.75 11.617188 0 8.734375 0 L 2.3125 0 L 2.3125 -17.828125 Z M 8.515625 -2.96875 C 10.359375 -2.96875 11.734375 -3.4375 12.640625 -4.375 C 13.554688 -5.3125 14.015625 -6.820312 14.015625 -8.90625 C 14.015625 -11 13.554688 -12.515625 12.640625 -13.453125 C 11.734375 -14.390625 10.359375 -14.859375 8.515625 -14.859375 L 5.84375 -14.859375 L 5.84375 -2.96875 Z M 8.515625 -2.96875 "/></g></g></g><g fill="#4ea8de" fill-opacity="1"><g transform="translate(148.022637, 30.61407)"><g><path d="M 7.8125 0.25 C 6.5 0.25 5.34375 -0.015625 4.34375 -0.546875 C 3.351562 -1.085938 2.582031 -1.878906 2.03125 -2.921875 C 1.476562 -3.972656 1.203125 -5.238281 1.203125 -6.71875 C 1.203125 -8.195312 1.476562 -9.457031 2.03125 -10.5 C 2.582031 -11.550781 3.351562 -12.347656 4.34375 -12.890625 C 5.34375 -13.429688 6.5 -13.703125 7.8125 -13.703125 C 9.132812 -13.703125 10.289062 -13.429688 11.28125 -12.890625 C 12.28125 -12.347656 13.054688 -11.550781 13.609375 -10.5 C 14.160156 -9.457031 14.4375 -8.195312 14.4375 -6.71875 C 14.4375 -5.238281 14.160156 -3.972656 13.609375 -2.921875 C 13.054688 -1.878906 12.28125 -1.085938 11.28125 -0.546875 C 10.289062 -0.015625 9.132812 0.25 7.8125 0.25 Z M 7.8125 -2.609375 C 9.90625 -2.609375 10.953125 -3.976562 10.953125 -6.71875 C 10.953125 -8.132812 10.679688 -9.175781 10.140625 -9.84375 C 9.609375 -10.507812 8.832031 -10.84375 7.8125 -10.84375 C 5.726562 -10.84375 4.6875 -9.46875 4.6875 -6.71875 C 4.6875 -3.976562 5.726562 -2.609375 7.8125 -2.609375 Z M 7.8125 -2.609375 "/></g></g></g><g fill="#8284fa" fill-opacity="0.4"><g transform="translate(164.763248, 31.717897)"><g/></g></g><g fill="#8284fa" fill-opacity="0.4"><g transform="translate(170.65289, 31.717897)"><g><path d="M 5.84375 -17.828125 L 5.84375 -2.953125 L 13.84375 -2.953125 L 13.84375 0 L 2.3125 0 L 2.3125 -17.828125 Z M 5.84375 -17.828125 "/></g></g></g><g fill="#8284fa" fill-opacity="0.4"><g transform="translate(185.090424, 31.717897)"><g><path d="M 3.625 -15.0625 C 3.007812 -15.0625 2.507812 -15.242188 2.125 -15.609375 C 1.75 -15.984375 1.5625 -16.460938 1.5625 -17.046875 C 1.5625 -17.617188 1.75 -18.085938 2.125 -18.453125 C 2.507812 -18.828125 3.007812 -19.015625 3.625 -19.015625 C 4.03125 -19.015625 4.390625 -18.925781 4.703125 -18.75 C 5.023438 -18.582031 5.269531 -18.347656 5.4375 -18.046875 C 5.613281 -17.753906 5.703125 -17.421875 5.703125 -17.046875 C 5.703125 -16.660156 5.613281 -16.316406 5.4375 -16.015625 C 5.269531 -15.710938 5.023438 -15.476562 4.703125 -15.3125 C 4.390625 -15.144531 4.03125 -15.0625 3.625 -15.0625 Z M 1.9375 0 L 1.9375 -13.453125 L 5.3125 -13.453125 L 5.3125 0 Z M 1.9375 0 "/></g></g></g><g fill="#8284fa" fill-opacity="0.4"><g transform="translate(192.33358, 31.717897)"><g><path d="M 6.296875 0.25 C 5.367188 0.25 4.523438 0.144531 3.765625 -0.0625 C 3.003906 -0.28125 2.351562 -0.578125 1.8125 -0.953125 C 1.269531 -1.335938 0.867188 -1.769531 0.609375 -2.25 L 2.484375 -4.28125 L 2.75 -4.28125 C 3.1875 -3.675781 3.710938 -3.222656 4.328125 -2.921875 C 4.941406 -2.617188 5.601562 -2.46875 6.3125 -2.46875 C 6.96875 -2.46875 7.460938 -2.585938 7.796875 -2.828125 C 8.128906 -3.066406 8.296875 -3.40625 8.296875 -3.84375 C 8.296875 -4.1875 8.175781 -4.472656 7.9375 -4.703125 C 7.695312 -4.929688 7.3125 -5.113281 6.78125 -5.25 L 5 -5.671875 C 3.664062 -5.984375 2.691406 -6.46875 2.078125 -7.125 C 1.460938 -7.78125 1.15625 -8.613281 1.15625 -9.625 C 1.15625 -10.457031 1.367188 -11.179688 1.796875 -11.796875 C 2.222656 -12.421875 2.820312 -12.894531 3.59375 -13.21875 C 4.375 -13.539062 5.28125 -13.703125 6.3125 -13.703125 C 7.519531 -13.703125 8.519531 -13.523438 9.3125 -13.171875 C 10.113281 -12.828125 10.738281 -12.363281 11.1875 -11.78125 L 9.390625 -9.828125 L 9.140625 -9.828125 C 8.765625 -10.242188 8.34375 -10.550781 7.875 -10.75 C 7.414062 -10.945312 6.894531 -11.046875 6.3125 -11.046875 C 4.976562 -11.046875 4.3125 -10.628906 4.3125 -9.796875 C 4.3125 -9.453125 4.4375 -9.171875 4.6875 -8.953125 C 4.9375 -8.734375 5.375 -8.550781 6 -8.40625 L 7.65625 -8.046875 C 9.019531 -7.753906 10.015625 -7.285156 10.640625 -6.640625 C 11.273438 -5.992188 11.59375 -5.125 11.59375 -4.03125 C 11.59375 -3.175781 11.378906 -2.421875 10.953125 -1.765625 C 10.535156 -1.117188 9.925781 -0.617188 9.125 -0.265625 C 8.332031 0.078125 7.390625 0.25 6.296875 0.25 Z M 6.296875 0.25 "/></g></g></g><g fill="#8284fa" fill-opacity="0.4"><g transform="translate(204.734745, 31.717897)"><g><path d="M 9.28125 -3.203125 L 10.15625 -0.703125 C 9.789062 -0.398438 9.332031 -0.164062 8.78125 0 C 8.226562 0.164062 7.601562 0.25 6.90625 0.25 C 5.445312 0.25 4.335938 -0.144531 3.578125 -0.9375 C 2.828125 -1.726562 2.453125 -2.878906 2.453125 -4.390625 L 2.453125 -10.78125 L 0.40625 -10.78125 L 0.40625 -13.453125 L 2.453125 -13.453125 L 2.453125 -16.078125 L 5.828125 -16.625 L 5.828125 -13.453125 L 9.640625 -13.453125 L 9.640625 -10.78125 L 5.828125 -10.78125 L 5.828125 -4.640625 C 5.828125 -3.972656 5.960938 -3.484375 6.234375 -3.171875 C 6.515625 -2.867188 6.921875 -2.71875 7.453125 -2.71875 C 8.046875 -2.71875 8.566406 -2.878906 9.015625 -3.203125 Z M 9.28125 -3.203125 "/></g></g></g><g fill="#8284fa" fill-opacity="1"><g transform="translate(163.659424, 30.61407)"><g/></g></g><g fill="#8284fa" fill-opacity="1"><g transform="translate(169.549066, 30.61407)"><g><path d="M 5.84375 -17.828125 L 5.84375 -2.953125 L 13.84375 -2.953125 L 13.84375 0 L 2.3125 0 L 2.3125 -17.828125 Z M 5.84375 -17.828125 "/></g></g></g><g fill="#8284fa" fill-opacity="1"><g transform="translate(183.986601, 30.61407)"><g><path d="M 3.625 -15.0625 C 3.007812 -15.0625 2.507812 -15.242188 2.125 -15.609375 C 1.75 -15.984375 1.5625 -16.460938 1.5625 -17.046875 C 1.5625 -17.617188 1.75 -18.085938 2.125 -18.453125 C 2.507812 -18.828125 3.007812 -19.015625 3.625 -19.015625 C 4.03125 -19.015625 4.390625 -18.925781 4.703125 -18.75 C 5.023438 -18.582031 5.269531 -18.347656 5.4375 -18.046875 C 5.613281 -17.753906 5.703125 -17.421875 5.703125 -17.046875 C 5.703125 -16.660156 5.613281 -16.316406 5.4375 -16.015625 C 5.269531 -15.710938 5.023438 -15.476562 4.703125 -15.3125 C 4.390625 -15.144531 4.03125 -15.0625 3.625 -15.0625 Z M 1.9375 0 L 1.9375 -13.453125 L 5.3125 -13.453125 L 5.3125 0 Z M 1.9375 0 "/></g></g></g><g fill="#8284fa" fill-opacity="1"><g transform="translate(191.229757, 30.61407)"><g><path d="M 6.296875 0.25 C 5.367188 0.25 4.523438 0.144531 3.765625 -0.0625 C 3.003906 -0.28125 2.351562 -0.578125 1.8125 -0.953125 C 1.269531 -1.335938 0.867188 -1.769531 0.609375 -2.25 L 2.484375 -4.28125 L 2.75 -4.28125 C 3.1875 -3.675781 3.710938 -3.222656 4.328125 -2.921875 C 4.941406 -2.617188 5.601562 -2.46875 6.3125 -2.46875 C 6.96875 -2.46875 7.460938 -2.585938 7.796875 -2.828125 C 8.128906 -3.066406 8.296875 -3.40625 8.296875 -3.84375 C 8.296875 -4.1875 8.175781 -4.472656 7.9375 -4.703125 C 7.695312 -4.929688 7.3125 -5.113281 6.78125 -5.25 L 5 -5.671875 C 3.664062 -5.984375 2.691406 -6.46875 2.078125 -7.125 C 1.460938 -7.78125 1.15625 -8.613281 1.15625 -9.625 C 1.15625 -10.457031 1.367188 -11.179688 1.796875 -11.796875 C 2.222656 -12.421875 2.820312 -12.894531 3.59375 -13.21875 C 4.375 -13.539062 5.28125 -13.703125 6.3125 -13.703125 C 7.519531 -13.703125 8.519531 -13.523438 9.3125 -13.171875 C 10.113281 -12.828125 10.738281 -12.363281 11.1875 -11.78125 L 9.390625 -9.828125 L 9.140625 -9.828125 C 8.765625 -10.242188 8.34375 -10.550781 7.875 -10.75 C 7.414062 -10.945312 6.894531 -11.046875 6.3125 -11.046875 C 4.976562 -11.046875 4.3125 -10.628906 4.3125 -9.796875 C 4.3125 -9.453125 4.4375 -9.171875 4.6875 -8.953125 C 4.9375 -8.734375 5.375 -8.550781 6 -8.40625 L 7.65625 -8.046875 C 9.019531 -7.753906 10.015625 -7.285156 10.640625 -6.640625 C 11.273438 -5.992188 11.59375 -5.125 11.59375 -4.03125 C 11.59375 -3.175781 11.378906 -2.421875 10.953125 -1.765625 C 10.535156 -1.117188 9.925781 -0.617188 9.125 -0.265625 C 8.332031 0.078125 7.390625 0.25 6.296875 0.25 Z M 6.296875 0.25 "/></g></g></g><g fill="#8284fa" fill-opacity="1"><g transform="translate(203.630922, 30.61407)"><g><path d="M 9.28125 -3.203125 L 10.15625 -0.703125 C 9.789062 -0.398438 9.332031 -0.164062 8.78125 0 C 8.226562 0.164062 7.601562 0.25 6.90625 0.25 C 5.445312 0.25 4.335938 -0.144531 3.578125 -0.9375 C 2.828125 -1.726562 2.453125 -2.878906 2.453125 -4.390625 L 2.453125 -10.78125 L 0.40625 -10.78125 L 0.40625 -13.453125 L 2.453125 -13.453125 L 2.453125 -16.078125 L 5.828125 -16.625 L 5.828125 -13.453125 L 9.640625 -13.453125 L 9.640625 -10.78125 L 5.828125 -10.78125 L 5.828125 -4.640625 C 5.828125 -3.972656 5.960938 -3.484375 6.234375 -3.171875 C 6.515625 -2.867188 6.921875 -2.71875 7.453125 -2.71875 C 8.046875 -2.71875 8.566406 -2.878906 9.015625 -3.203125 Z M 9.28125 -3.203125 "/></g></g></g><g fill="#8284fa" fill-opacity="0.4"><g transform="translate(4.326886, 55.096194)"><g><path d="M 5.84375 0.15625 C 4.863281 0.15625 3.992188 -0.046875 3.234375 -0.453125 C 2.484375 -0.867188 1.894531 -1.488281 1.46875 -2.3125 C 1.050781 -3.132812 0.84375 -4.144531 0.84375 -5.34375 C 0.84375 -6.550781 1.050781 -7.566406 1.46875 -8.390625 C 1.894531 -9.210938 2.484375 -9.828125 3.234375 -10.234375 C 3.992188 -10.640625 4.863281 -10.84375 5.84375 -10.84375 C 6.875 -10.84375 7.75 -10.640625 8.46875 -10.234375 C 9.1875 -9.835938 9.703125 -9.226562 10.015625 -8.40625 L 8.46875 -7.46875 L 8.28125 -7.46875 C 8.050781 -8.019531 7.738281 -8.414062 7.34375 -8.65625 C 6.957031 -8.90625 6.457031 -9.03125 5.84375 -9.03125 C 4.957031 -9.03125 4.265625 -8.734375 3.765625 -8.140625 C 3.265625 -7.554688 3.015625 -6.625 3.015625 -5.34375 C 3.015625 -4.070312 3.265625 -3.140625 3.765625 -2.546875 C 4.265625 -1.960938 4.957031 -1.671875 5.84375 -1.671875 C 7.238281 -1.671875 8.09375 -2.347656 8.40625 -3.703125 L 8.578125 -3.703125 L 10.140625 -2.890625 C 9.847656 -1.878906 9.347656 -1.117188 8.640625 -0.609375 C 7.929688 -0.0976562 7 0.15625 5.84375 0.15625 Z M 5.84375 0.15625 "/></g></g><g transform="translate(14.820126, 55.096194)"><g><path d="M 1.15625 0 L 1.15625 -8.0625 L 3.125 -8.0625 L 3.125 -6.875 L 3.28125 -6.84375 C 3.476562 -7.289062 3.734375 -7.617188 4.046875 -7.828125 C 4.367188 -8.035156 4.753906 -8.140625 5.203125 -8.140625 C 5.660156 -8.140625 6.007812 -8.0625 6.25 -7.90625 L 5.90625 -6.15625 L 5.765625 -6.125 C 5.628906 -6.1875 5.5 -6.226562 5.375 -6.25 C 5.25 -6.269531 5.101562 -6.28125 4.9375 -6.28125 C 4.363281 -6.28125 3.925781 -6.082031 3.625 -5.6875 C 3.332031 -5.289062 3.1875 -4.65625 3.1875 -3.78125 L 3.1875 0 Z M 1.15625 0 "/></g></g><g transform="translate(21.149731, 55.096194)"><g><path d="M 2.171875 -9.03125 C 1.804688 -9.03125 1.507812 -9.140625 1.28125 -9.359375 C 1.050781 -9.585938 0.9375 -9.878906 0.9375 -10.234375 C 0.9375 -10.578125 1.050781 -10.859375 1.28125 -11.078125 C 1.507812 -11.296875 1.804688 -11.40625 2.171875 -11.40625 C 2.410156 -11.40625 2.625 -11.351562 2.8125 -11.25 C 3.007812 -11.15625 3.160156 -11.019531 3.265625 -10.84375 C 3.367188 -10.664062 3.421875 -10.460938 3.421875 -10.234375 C 3.421875 -10.003906 3.367188 -9.796875 3.265625 -9.609375 C 3.160156 -9.429688 3.007812 -9.289062 2.8125 -9.1875 C 2.625 -9.082031 2.410156 -9.03125 2.171875 -9.03125 Z M 1.15625 0 L 1.15625 -8.0625 L 3.1875 -8.0625 L 3.1875 0 Z M 1.15625 0 "/></g></g><g transform="translate(25.496303, 55.096194)"><g><path d="M 3.78125 0.15625 C 3.226562 0.15625 2.722656 0.09375 2.265625 -0.03125 C 1.804688 -0.164062 1.410156 -0.347656 1.078125 -0.578125 C 0.753906 -0.804688 0.515625 -1.066406 0.359375 -1.359375 L 1.5 -2.5625 L 1.640625 -2.5625 C 1.910156 -2.207031 2.226562 -1.9375 2.59375 -1.75 C 2.957031 -1.570312 3.359375 -1.484375 3.796875 -1.484375 C 4.179688 -1.484375 4.472656 -1.550781 4.671875 -1.6875 C 4.878906 -1.832031 4.984375 -2.039062 4.984375 -2.3125 C 4.984375 -2.507812 4.910156 -2.675781 4.765625 -2.8125 C 4.617188 -2.957031 4.382812 -3.066406 4.0625 -3.140625 L 3 -3.40625 C 2.195312 -3.59375 1.609375 -3.878906 1.234375 -4.265625 C 0.867188 -4.660156 0.6875 -5.160156 0.6875 -5.765625 C 0.6875 -6.273438 0.816406 -6.710938 1.078125 -7.078125 C 1.335938 -7.453125 1.695312 -7.734375 2.15625 -7.921875 C 2.625 -8.117188 3.171875 -8.21875 3.796875 -8.21875 C 4.515625 -8.21875 5.113281 -8.113281 5.59375 -7.90625 C 6.070312 -7.695312 6.445312 -7.414062 6.71875 -7.0625 L 5.640625 -5.890625 L 5.484375 -5.890625 C 5.265625 -6.148438 5.015625 -6.335938 4.734375 -6.453125 C 4.453125 -6.566406 4.140625 -6.625 3.796875 -6.625 C 2.992188 -6.625 2.59375 -6.375 2.59375 -5.875 C 2.59375 -5.664062 2.664062 -5.492188 2.8125 -5.359375 C 2.957031 -5.234375 3.21875 -5.128906 3.59375 -5.046875 L 4.59375 -4.828125 C 5.414062 -4.648438 6.015625 -4.367188 6.390625 -3.984375 C 6.765625 -3.597656 6.953125 -3.078125 6.953125 -2.421875 C 6.953125 -1.910156 6.828125 -1.457031 6.578125 -1.0625 C 6.328125 -0.675781 5.960938 -0.375 5.484375 -0.15625 C 5.003906 0.0507812 4.4375 0.15625 3.78125 0.15625 Z M 3.78125 0.15625 "/></g></g><g transform="translate(32.938162, 55.096194)"><g><path d="M 5.5625 -1.921875 L 6.09375 -0.421875 C 5.875 -0.242188 5.597656 -0.101562 5.265625 0 C 4.929688 0.101562 4.554688 0.15625 4.140625 0.15625 C 3.265625 0.15625 2.597656 -0.078125 2.140625 -0.546875 C 1.691406 -1.023438 1.46875 -1.722656 1.46875 -2.640625 L 1.46875 -6.46875 L 0.234375 -6.46875 L 0.234375 -8.078125 L 1.46875 -8.078125 L 1.46875 -9.65625 L 3.5 -9.984375 L 3.5 -8.078125 L 5.78125 -8.078125 L 5.78125 -6.46875 L 3.5 -6.46875 L 3.5 -2.78125 C 3.5 -2.382812 3.582031 -2.09375 3.75 -1.90625 C 3.914062 -1.71875 4.15625 -1.625 4.46875 -1.625 C 4.832031 -1.625 5.148438 -1.722656 5.421875 -1.921875 Z M 5.5625 -1.921875 "/></g></g><g transform="translate(39.209226, 55.096194)"><g><path d="M 4.6875 0.15625 C 3.894531 0.15625 3.203125 -0.00390625 2.609375 -0.328125 C 2.015625 -0.648438 1.550781 -1.125 1.21875 -1.75 C 0.882812 -2.382812 0.71875 -3.144531 0.71875 -4.03125 C 0.71875 -4.914062 0.882812 -5.671875 1.21875 -6.296875 C 1.550781 -6.929688 2.015625 -7.410156 2.609375 -7.734375 C 3.203125 -8.054688 3.894531 -8.21875 4.6875 -8.21875 C 5.476562 -8.21875 6.171875 -8.054688 6.765625 -7.734375 C 7.367188 -7.410156 7.832031 -6.929688 8.15625 -6.296875 C 8.488281 -5.671875 8.65625 -4.914062 8.65625 -4.03125 C 8.65625 -3.144531 8.488281 -2.382812 8.15625 -1.75 C 7.832031 -1.125 7.367188 -0.648438 6.765625 -0.328125 C 6.171875 -0.00390625 5.476562 0.15625 4.6875 0.15625 Z M 4.6875 -1.5625 C 5.9375 -1.5625 6.5625 -2.382812 6.5625 -4.03125 C 6.5625 -4.882812 6.398438 -5.507812 6.078125 -5.90625 C 5.765625 -6.300781 5.300781 -6.5 4.6875 -6.5 C 3.4375 -6.5 2.8125 -5.675781 2.8125 -4.03125 C 2.8125 -2.382812 3.4375 -1.5625 4.6875 -1.5625 Z M 4.6875 -1.5625 "/></g></g><g transform="translate(48.590212, 55.096194)"><g><path d="M 5.546875 0 L 3.140625 0 L 0.15625 -8.0625 L 2.28125 -8.0625 L 4.28125 -2.3125 L 4.453125 -2.3125 L 6.453125 -8.0625 L 8.53125 -8.0625 Z M 5.546875 0 "/></g></g><g transform="translate(57.268722, 55.096194)"><g><path d="M 3.140625 0.15625 C 2.628906 0.15625 2.179688 0.0625 1.796875 -0.125 C 1.421875 -0.320312 1.128906 -0.601562 0.921875 -0.96875 C 0.710938 -1.332031 0.609375 -1.773438 0.609375 -2.296875 C 0.609375 -2.773438 0.710938 -3.175781 0.921875 -3.5 C 1.128906 -3.820312 1.445312 -4.085938 1.875 -4.296875 C 2.300781 -4.503906 2.863281 -4.664062 3.5625 -4.78125 C 4.039062 -4.851562 4.40625 -4.9375 4.65625 -5.03125 C 4.90625 -5.125 5.070312 -5.226562 5.15625 -5.34375 C 5.25 -5.46875 5.296875 -5.617188 5.296875 -5.796875 C 5.296875 -6.054688 5.203125 -6.253906 5.015625 -6.390625 C 4.835938 -6.523438 4.539062 -6.59375 4.125 -6.59375 C 3.675781 -6.59375 3.25 -6.492188 2.84375 -6.296875 C 2.4375 -6.097656 2.085938 -5.832031 1.796875 -5.5 L 1.640625 -5.5 L 0.796875 -6.78125 C 1.203125 -7.238281 1.703125 -7.59375 2.296875 -7.84375 C 2.890625 -8.09375 3.535156 -8.21875 4.234375 -8.21875 C 5.296875 -8.21875 6.066406 -7.988281 6.546875 -7.53125 C 7.023438 -7.082031 7.265625 -6.441406 7.265625 -5.609375 L 7.265625 -2.109375 C 7.265625 -1.742188 7.421875 -1.5625 7.734375 -1.5625 C 7.859375 -1.5625 7.976562 -1.582031 8.09375 -1.625 L 8.203125 -1.609375 L 8.34375 -0.1875 C 8.238281 -0.113281 8.082031 -0.0507812 7.875 0 C 7.675781 0.0390625 7.457031 0.0625 7.21875 0.0625 C 6.738281 0.0625 6.363281 -0.03125 6.09375 -0.21875 C 5.820312 -0.40625 5.628906 -0.695312 5.515625 -1.09375 L 5.359375 -1.109375 C 4.960938 -0.265625 4.222656 0.15625 3.140625 0.15625 Z M 3.796875 -1.359375 C 4.265625 -1.359375 4.632812 -1.515625 4.90625 -1.828125 C 5.1875 -2.148438 5.328125 -2.585938 5.328125 -3.140625 L 5.328125 -3.96875 L 5.1875 -4 C 5.070312 -3.894531 4.914062 -3.8125 4.71875 -3.75 C 4.519531 -3.6875 4.234375 -3.625 3.859375 -3.5625 C 3.421875 -3.488281 3.101562 -3.359375 2.90625 -3.171875 C 2.71875 -2.992188 2.625 -2.742188 2.625 -2.421875 C 2.625 -2.078125 2.722656 -1.8125 2.921875 -1.625 C 3.128906 -1.445312 3.421875 -1.359375 3.796875 -1.359375 Z M 3.796875 -1.359375 "/></g></g><g transform="translate(65.77893, 55.096194)"><g><path d="M 3.34375 0.15625 C 2.625 0.15625 2.070312 -0.0390625 1.6875 -0.4375 C 1.300781 -0.832031 1.109375 -1.425781 1.109375 -2.21875 L 1.109375 -11.3125 L 3.140625 -11.3125 L 3.140625 -2.3125 C 3.140625 -1.8125 3.34375 -1.5625 3.75 -1.5625 C 3.863281 -1.5625 3.988281 -1.582031 4.125 -1.625 L 4.234375 -1.59375 L 4.40625 -0.03125 C 4.300781 0.0195312 4.15625 0.0625 3.96875 0.09375 C 3.78125 0.132812 3.570312 0.15625 3.34375 0.15625 Z M 3.34375 0.15625 "/></g></g><g transform="translate(70.418201, 55.096194)"><g/></g><g transform="translate(73.952535, 55.096194)"><g><path d="M 3.4375 0 L 1.390625 0 L 1.390625 -10.703125 L 3.8125 -10.703125 L 8.109375 -3.796875 L 8.296875 -3.828125 L 8.296875 -10.703125 L 10.328125 -10.703125 L 10.328125 0 L 8.171875 0 L 3.625 -7.359375 L 3.4375 -7.328125 Z M 3.4375 0 "/></g></g><g transform="translate(85.682426, 55.096194)"><g><path d="M 7.96875 -3.578125 L 2.78125 -3.578125 C 2.84375 -2.878906 3.046875 -2.367188 3.390625 -2.046875 C 3.734375 -1.722656 4.195312 -1.5625 4.78125 -1.5625 C 5.25 -1.5625 5.625 -1.644531 5.90625 -1.8125 C 6.195312 -1.988281 6.429688 -2.253906 6.609375 -2.609375 L 6.765625 -2.609375 L 8.109375 -1.75 C 7.847656 -1.1875 7.445312 -0.726562 6.90625 -0.375 C 6.375 -0.0195312 5.664062 0.15625 4.78125 0.15625 C 3.945312 0.15625 3.226562 0 2.625 -0.3125 C 2.019531 -0.632812 1.550781 -1.109375 1.21875 -1.734375 C 0.882812 -2.359375 0.71875 -3.125 0.71875 -4.03125 C 0.71875 -4.945312 0.890625 -5.71875 1.234375 -6.34375 C 1.585938 -6.976562 2.054688 -7.445312 2.640625 -7.75 C 3.234375 -8.0625 3.898438 -8.21875 4.640625 -8.21875 C 5.773438 -8.21875 6.644531 -7.914062 7.25 -7.3125 C 7.863281 -6.707031 8.171875 -5.820312 8.171875 -4.65625 C 8.171875 -4.226562 8.15625 -3.898438 8.125 -3.671875 Z M 6.234375 -4.890625 C 6.210938 -5.503906 6.066406 -5.953125 5.796875 -6.234375 C 5.535156 -6.515625 5.148438 -6.65625 4.640625 -6.65625 C 3.617188 -6.65625 3.015625 -6.066406 2.828125 -4.890625 Z M 6.234375 -4.890625 "/></g></g><g transform="translate(94.456063, 55.096194)"><g><path d="M 4.6875 0.15625 C 3.894531 0.15625 3.203125 -0.00390625 2.609375 -0.328125 C 2.015625 -0.648438 1.550781 -1.125 1.21875 -1.75 C 0.882812 -2.382812 0.71875 -3.144531 0.71875 -4.03125 C 0.71875 -4.914062 0.882812 -5.671875 1.21875 -6.296875 C 1.550781 -6.929688 2.015625 -7.410156 2.609375 -7.734375 C 3.203125 -8.054688 3.894531 -8.21875 4.6875 -8.21875 C 5.476562 -8.21875 6.171875 -8.054688 6.765625 -7.734375 C 7.367188 -7.410156 7.832031 -6.929688 8.15625 -6.296875 C 8.488281 -5.671875 8.65625 -4.914062 8.65625 -4.03125 C 8.65625 -3.144531 8.488281 -2.382812 8.15625 -1.75 C 7.832031 -1.125 7.367188 -0.648438 6.765625 -0.328125 C 6.171875 -0.00390625 5.476562 0.15625 4.6875 0.15625 Z M 4.6875 -1.5625 C 5.9375 -1.5625 6.5625 -2.382812 6.5625 -4.03125 C 6.5625 -4.882812 6.398438 -5.507812 6.078125 -5.90625 C 5.765625 -6.300781 5.300781 -6.5 4.6875 -6.5 C 3.4375 -6.5 2.8125 -5.675781 2.8125 -4.03125 C 2.8125 -2.382812 3.4375 -1.5625 4.6875 -1.5625 Z M 4.6875 -1.5625 "/></g></g><g transform="translate(103.837049, 55.096194)"><g/></g><g transform="translate(107.371383, 55.096194)"><g><path d="M 4.734375 0.15625 C 3.992188 0.15625 3.332031 0.0664062 2.75 -0.109375 C 2.175781 -0.296875 1.695312 -0.535156 1.3125 -0.828125 C 0.925781 -1.128906 0.632812 -1.460938 0.4375 -1.828125 L 1.59375 -3.234375 L 1.78125 -3.234375 C 2.101562 -2.765625 2.507812 -2.382812 3 -2.09375 C 3.5 -1.8125 4.078125 -1.671875 4.734375 -1.671875 C 5.304688 -1.671875 5.734375 -1.789062 6.015625 -2.03125 C 6.304688 -2.269531 6.453125 -2.597656 6.453125 -3.015625 C 6.453125 -3.273438 6.40625 -3.488281 6.3125 -3.65625 C 6.21875 -3.832031 6.0625 -3.976562 5.84375 -4.09375 C 5.632812 -4.21875 5.347656 -4.320312 4.984375 -4.40625 L 3.609375 -4.71875 C 2.648438 -4.945312 1.929688 -5.3125 1.453125 -5.8125 C 0.984375 -6.320312 0.75 -6.988281 0.75 -7.8125 C 0.75 -8.414062 0.898438 -8.945312 1.203125 -9.40625 C 1.503906 -9.863281 1.941406 -10.21875 2.515625 -10.46875 C 3.097656 -10.71875 3.796875 -10.84375 4.609375 -10.84375 C 5.429688 -10.84375 6.132812 -10.734375 6.71875 -10.515625 C 7.3125 -10.304688 7.804688 -9.976562 8.203125 -9.53125 L 7.15625 -8.09375 L 6.984375 -8.09375 C 6.679688 -8.40625 6.332031 -8.640625 5.9375 -8.796875 C 5.550781 -8.960938 5.109375 -9.046875 4.609375 -9.046875 C 4.023438 -9.046875 3.582031 -8.941406 3.28125 -8.734375 C 2.976562 -8.523438 2.828125 -8.242188 2.828125 -7.890625 C 2.828125 -7.546875 2.929688 -7.273438 3.140625 -7.078125 C 3.347656 -6.878906 3.71875 -6.722656 4.25 -6.609375 L 5.640625 -6.328125 C 6.679688 -6.109375 7.4375 -5.734375 7.90625 -5.203125 C 8.375 -4.679688 8.609375 -4 8.609375 -3.15625 C 8.609375 -2.488281 8.460938 -1.90625 8.171875 -1.40625 C 7.890625 -0.914062 7.457031 -0.53125 6.875 -0.25 C 6.289062 0.0195312 5.578125 0.15625 4.734375 0.15625 Z M 4.734375 0.15625 "/></g></g><g transform="translate(116.562115, 55.096194)"><g><path d="M 3.140625 0.15625 C 2.628906 0.15625 2.179688 0.0625 1.796875 -0.125 C 1.421875 -0.320312 1.128906 -0.601562 0.921875 -0.96875 C 0.710938 -1.332031 0.609375 -1.773438 0.609375 -2.296875 C 0.609375 -2.773438 0.710938 -3.175781 0.921875 -3.5 C 1.128906 -3.820312 1.445312 -4.085938 1.875 -4.296875 C 2.300781 -4.503906 2.863281 -4.664062 3.5625 -4.78125 C 4.039062 -4.851562 4.40625 -4.9375 4.65625 -5.03125 C 4.90625 -5.125 5.070312 -5.226562 5.15625 -5.34375 C 5.25 -5.46875 5.296875 -5.617188 5.296875 -5.796875 C 5.296875 -6.054688 5.203125 -6.253906 5.015625 -6.390625 C 4.835938 -6.523438 4.539062 -6.59375 4.125 -6.59375 C 3.675781 -6.59375 3.25 -6.492188 2.84375 -6.296875 C 2.4375 -6.097656 2.085938 -5.832031 1.796875 -5.5 L 1.640625 -5.5 L 0.796875 -6.78125 C 1.203125 -7.238281 1.703125 -7.59375 2.296875 -7.84375 C 2.890625 -8.09375 3.535156 -8.21875 4.234375 -8.21875 C 5.296875 -8.21875 6.066406 -7.988281 6.546875 -7.53125 C 7.023438 -7.082031 7.265625 -6.441406 7.265625 -5.609375 L 7.265625 -2.109375 C 7.265625 -1.742188 7.421875 -1.5625 7.734375 -1.5625 C 7.859375 -1.5625 7.976562 -1.582031 8.09375 -1.625 L 8.203125 -1.609375 L 8.34375 -0.1875 C 8.238281 -0.113281 8.082031 -0.0507812 7.875 0 C 7.675781 0.0390625 7.457031 0.0625 7.21875 0.0625 C 6.738281 0.0625 6.363281 -0.03125 6.09375 -0.21875 C 5.820312 -0.40625 5.628906 -0.695312 5.515625 -1.09375 L 5.359375 -1.109375 C 4.960938 -0.265625 4.222656 0.15625 3.140625 0.15625 Z M 3.796875 -1.359375 C 4.265625 -1.359375 4.632812 -1.515625 4.90625 -1.828125 C 5.1875 -2.148438 5.328125 -2.585938 5.328125 -3.140625 L 5.328125 -3.96875 L 5.1875 -4 C 5.070312 -3.894531 4.914062 -3.8125 4.71875 -3.75 C 4.519531 -3.6875 4.234375 -3.625 3.859375 -3.5625 C 3.421875 -3.488281 3.101562 -3.359375 2.90625 -3.171875 C 2.71875 -2.992188 2.625 -2.742188 2.625 -2.421875 C 2.625 -2.078125 2.722656 -1.8125 2.921875 -1.625 C 3.128906 -1.445312 3.421875 -1.359375 3.796875 -1.359375 Z M 3.796875 -1.359375 "/></g></g><g transform="translate(125.072323, 55.096194)"><g><path d="M 3.78125 0.15625 C 3.226562 0.15625 2.722656 0.09375 2.265625 -0.03125 C 1.804688 -0.164062 1.410156 -0.347656 1.078125 -0.578125 C 0.753906 -0.804688 0.515625 -1.066406 0.359375 -1.359375 L 1.5 -2.5625 L 1.640625 -2.5625 C 1.910156 -2.207031 2.226562 -1.9375 2.59375 -1.75 C 2.957031 -1.570312 3.359375 -1.484375 3.796875 -1.484375 C 4.179688 -1.484375 4.472656 -1.550781 4.671875 -1.6875 C 4.878906 -1.832031 4.984375 -2.039062 4.984375 -2.3125 C 4.984375 -2.507812 4.910156 -2.675781 4.765625 -2.8125 C 4.617188 -2.957031 4.382812 -3.066406 4.0625 -3.140625 L 3 -3.40625 C 2.195312 -3.59375 1.609375 -3.878906 1.234375 -4.265625 C 0.867188 -4.660156 0.6875 -5.160156 0.6875 -5.765625 C 0.6875 -6.273438 0.816406 -6.710938 1.078125 -7.078125 C 1.335938 -7.453125 1.695312 -7.734375 2.15625 -7.921875 C 2.625 -8.117188 3.171875 -8.21875 3.796875 -8.21875 C 4.515625 -8.21875 5.113281 -8.113281 5.59375 -7.90625 C 6.070312 -7.695312 6.445312 -7.414062 6.71875 -7.0625 L 5.640625 -5.890625 L 5.484375 -5.890625 C 5.265625 -6.148438 5.015625 -6.335938 4.734375 -6.453125 C 4.453125 -6.566406 4.140625 -6.625 3.796875 -6.625 C 2.992188 -6.625 2.59375 -6.375 2.59375 -5.875 C 2.59375 -5.664062 2.664062 -5.492188 2.8125 -5.359375 C 2.957031 -5.234375 3.21875 -5.128906 3.59375 -5.046875 L 4.59375 -4.828125 C 5.414062 -4.648438 6.015625 -4.367188 6.390625 -3.984375 C 6.765625 -3.597656 6.953125 -3.078125 6.953125 -2.421875 C 6.953125 -1.910156 6.828125 -1.457031 6.578125 -1.0625 C 6.328125 -0.675781 5.960938 -0.375 5.484375 -0.15625 C 5.003906 0.0507812 4.4375 0.15625 3.78125 0.15625 Z M 3.78125 0.15625 "/></g></g><g transform="translate(132.514181, 55.096194)"><g><path d="M 4.6875 0.15625 C 3.894531 0.15625 3.203125 -0.00390625 2.609375 -0.328125 C 2.015625 -0.648438 1.550781 -1.125 1.21875 -1.75 C 0.882812 -2.382812 0.71875 -3.144531 0.71875 -4.03125 C 0.71875 -4.914062 0.882812 -5.671875 1.21875 -6.296875 C 1.550781 -6.929688 2.015625 -7.410156 2.609375 -7.734375 C 3.203125 -8.054688 3.894531 -8.21875 4.6875 -8.21875 C 5.476562 -8.21875 6.171875 -8.054688 6.765625 -7.734375 C 7.367188 -7.410156 7.832031 -6.929688 8.15625 -6.296875 C 8.488281 -5.671875 8.65625 -4.914062 8.65625 -4.03125 C 8.65625 -3.144531 8.488281 -2.382812 8.15625 -1.75 C 7.832031 -1.125 7.367188 -0.648438 6.765625 -0.328125 C 6.171875 -0.00390625 5.476562 0.15625 4.6875 0.15625 Z M 4.6875 -1.5625 C 5.9375 -1.5625 6.5625 -2.382812 6.5625 -4.03125 C 6.5625 -4.882812 6.398438 -5.507812 6.078125 -5.90625 C 5.765625 -6.300781 5.300781 -6.5 4.6875 -6.5 C 3.4375 -6.5 2.8125 -5.675781 2.8125 -4.03125 C 2.8125 -2.382812 3.4375 -1.5625 4.6875 -1.5625 Z M 4.6875 -1.5625 "/></g></g><g transform="translate(141.895167, 55.096194)"><g><path d="M 1.15625 0 L 1.15625 -8.0625 L 3.109375 -8.0625 L 3.109375 -6.890625 L 3.265625 -6.84375 C 3.765625 -7.757812 4.578125 -8.21875 5.703125 -8.21875 C 6.640625 -8.21875 7.328125 -7.960938 7.765625 -7.453125 C 8.203125 -6.953125 8.421875 -6.21875 8.421875 -5.25 L 8.421875 0 L 6.390625 0 L 6.390625 -5 C 6.390625 -5.53125 6.28125 -5.914062 6.0625 -6.15625 C 5.851562 -6.394531 5.507812 -6.515625 5.03125 -6.515625 C 4.445312 -6.515625 3.992188 -6.328125 3.671875 -5.953125 C 3.347656 -5.578125 3.1875 -4.984375 3.1875 -4.171875 L 3.1875 0 Z M 1.15625 0 "/></g></g><g transform="translate(151.349328, 55.096194)"><g><path d="M 4.6875 0.15625 C 3.894531 0.15625 3.203125 -0.00390625 2.609375 -0.328125 C 2.015625 -0.648438 1.550781 -1.125 1.21875 -1.75 C 0.882812 -2.382812 0.71875 -3.144531 0.71875 -4.03125 C 0.71875 -4.914062 0.882812 -5.671875 1.21875 -6.296875 C 1.550781 -6.929688 2.015625 -7.410156 2.609375 -7.734375 C 3.203125 -8.054688 3.894531 -8.21875 4.6875 -8.21875 C 5.476562 -8.21875 6.171875 -8.054688 6.765625 -7.734375 C 7.367188 -7.410156 7.832031 -6.929688 8.15625 -6.296875 C 8.488281 -5.671875 8.65625 -4.914062 8.65625 -4.03125 C 8.65625 -3.144531 8.488281 -2.382812 8.15625 -1.75 C 7.832031 -1.125 7.367188 -0.648438 6.765625 -0.328125 C 6.171875 -0.00390625 5.476562 0.15625 4.6875 0.15625 Z M 4.6875 -1.5625 C 5.9375 -1.5625 6.5625 -2.382812 6.5625 -4.03125 C 6.5625 -4.882812 6.398438 -5.507812 6.078125 -5.90625 C 5.765625 -6.300781 5.300781 -6.5 4.6875 -6.5 C 3.4375 -6.5 2.8125 -5.675781 2.8125 -4.03125 C 2.8125 -2.382812 3.4375 -1.5625 4.6875 -1.5625 Z M 4.6875 -1.5625 "/></g></g><g transform="translate(160.730314, 55.096194)"><g/></g><g transform="translate(164.264648, 55.096194)"><g><path d="M 5.125 -4.296875 L 0.640625 -4.296875 L 0.640625 -6.09375 L 5.125 -6.09375 Z M 5.125 -4.296875 "/></g></g></g><g fill="#4ea8de" fill-opacity="1"><g transform="translate(3.664585, 54.433895)"><g><path d="M 5.84375 0.15625 C 4.863281 0.15625 3.992188 -0.046875 3.234375 -0.453125 C 2.484375 -0.867188 1.894531 -1.488281 1.46875 -2.3125 C 1.050781 -3.132812 0.84375 -4.144531 0.84375 -5.34375 C 0.84375 -6.550781 1.050781 -7.566406 1.46875 -8.390625 C 1.894531 -9.210938 2.484375 -9.828125 3.234375 -10.234375 C 3.992188 -10.640625 4.863281 -10.84375 5.84375 -10.84375 C 6.875 -10.84375 7.75 -10.640625 8.46875 -10.234375 C 9.1875 -9.835938 9.703125 -9.226562 10.015625 -8.40625 L 8.46875 -7.46875 L 8.28125 -7.46875 C 8.050781 -8.019531 7.738281 -8.414062 7.34375 -8.65625 C 6.957031 -8.90625 6.457031 -9.03125 5.84375 -9.03125 C 4.957031 -9.03125 4.265625 -8.734375 3.765625 -8.140625 C 3.265625 -7.554688 3.015625 -6.625 3.015625 -5.34375 C 3.015625 -4.070312 3.265625 -3.140625 3.765625 -2.546875 C 4.265625 -1.960938 4.957031 -1.671875 5.84375 -1.671875 C 7.238281 -1.671875 8.09375 -2.347656 8.40625 -3.703125 L 8.578125 -3.703125 L 10.140625 -2.890625 C 9.847656 -1.878906 9.347656 -1.117188 8.640625 -0.609375 C 7.929688 -0.0976562 7 0.15625 5.84375 0.15625 Z M 5.84375 0.15625 "/></g></g><g transform="translate(14.157825, 54.433895)"><g><path d="M 1.15625 0 L 1.15625 -8.0625 L 3.125 -8.0625 L 3.125 -6.875 L 3.28125 -6.84375 C 3.476562 -7.289062 3.734375 -7.617188 4.046875 -7.828125 C 4.367188 -8.035156 4.753906 -8.140625 5.203125 -8.140625 C 5.660156 -8.140625 6.007812 -8.0625 6.25 -7.90625 L 5.90625 -6.15625 L 5.765625 -6.125 C 5.628906 -6.1875 5.5 -6.226562 5.375 -6.25 C 5.25 -6.269531 5.101562 -6.28125 4.9375 -6.28125 C 4.363281 -6.28125 3.925781 -6.082031 3.625 -5.6875 C 3.332031 -5.289062 3.1875 -4.65625 3.1875 -3.78125 L 3.1875 0 Z M 1.15625 0 "/></g></g><g transform="translate(20.487429, 54.433895)"><g><path d="M 2.171875 -9.03125 C 1.804688 -9.03125 1.507812 -9.140625 1.28125 -9.359375 C 1.050781 -9.585938 0.9375 -9.878906 0.9375 -10.234375 C 0.9375 -10.578125 1.050781 -10.859375 1.28125 -11.078125 C 1.507812 -11.296875 1.804688 -11.40625 2.171875 -11.40625 C 2.410156 -11.40625 2.625 -11.351562 2.8125 -11.25 C 3.007812 -11.15625 3.160156 -11.019531 3.265625 -10.84375 C 3.367188 -10.664062 3.421875 -10.460938 3.421875 -10.234375 C 3.421875 -10.003906 3.367188 -9.796875 3.265625 -9.609375 C 3.160156 -9.429688 3.007812 -9.289062 2.8125 -9.1875 C 2.625 -9.082031 2.410156 -9.03125 2.171875 -9.03125 Z M 1.15625 0 L 1.15625 -8.0625 L 3.1875 -8.0625 L 3.1875 0 Z M 1.15625 0 "/></g></g><g transform="translate(24.834002, 54.433895)"><g><path d="M 3.78125 0.15625 C 3.226562 0.15625 2.722656 0.09375 2.265625 -0.03125 C 1.804688 -0.164062 1.410156 -0.347656 1.078125 -0.578125 C 0.753906 -0.804688 0.515625 -1.066406 0.359375 -1.359375 L 1.5 -2.5625 L 1.640625 -2.5625 C 1.910156 -2.207031 2.226562 -1.9375 2.59375 -1.75 C 2.957031 -1.570312 3.359375 -1.484375 3.796875 -1.484375 C 4.179688 -1.484375 4.472656 -1.550781 4.671875 -1.6875 C 4.878906 -1.832031 4.984375 -2.039062 4.984375 -2.3125 C 4.984375 -2.507812 4.910156 -2.675781 4.765625 -2.8125 C 4.617188 -2.957031 4.382812 -3.066406 4.0625 -3.140625 L 3 -3.40625 C 2.195312 -3.59375 1.609375 -3.878906 1.234375 -4.265625 C 0.867188 -4.660156 0.6875 -5.160156 0.6875 -5.765625 C 0.6875 -6.273438 0.816406 -6.710938 1.078125 -7.078125 C 1.335938 -7.453125 1.695312 -7.734375 2.15625 -7.921875 C 2.625 -8.117188 3.171875 -8.21875 3.796875 -8.21875 C 4.515625 -8.21875 5.113281 -8.113281 5.59375 -7.90625 C 6.070312 -7.695312 6.445312 -7.414062 6.71875 -7.0625 L 5.640625 -5.890625 L 5.484375 -5.890625 C 5.265625 -6.148438 5.015625 -6.335938 4.734375 -6.453125 C 4.453125 -6.566406 4.140625 -6.625 3.796875 -6.625 C 2.992188 -6.625 2.59375 -6.375 2.59375 -5.875 C 2.59375 -5.664062 2.664062 -5.492188 2.8125 -5.359375 C 2.957031 -5.234375 3.21875 -5.128906 3.59375 -5.046875 L 4.59375 -4.828125 C 5.414062 -4.648438 6.015625 -4.367188 6.390625 -3.984375 C 6.765625 -3.597656 6.953125 -3.078125 6.953125 -2.421875 C 6.953125 -1.910156 6.828125 -1.457031 6.578125 -1.0625 C 6.328125 -0.675781 5.960938 -0.375 5.484375 -0.15625 C 5.003906 0.0507812 4.4375 0.15625 3.78125 0.15625 Z M 3.78125 0.15625 "/></g></g><g transform="translate(32.27586, 54.433895)"><g><path d="M 5.5625 -1.921875 L 6.09375 -0.421875 C 5.875 -0.242188 5.597656 -0.101562 5.265625 0 C 4.929688 0.101562 4.554688 0.15625 4.140625 0.15625 C 3.265625 0.15625 2.597656 -0.078125 2.140625 -0.546875 C 1.691406 -1.023438 1.46875 -1.722656 1.46875 -2.640625 L 1.46875 -6.46875 L 0.234375 -6.46875 L 0.234375 -8.078125 L 1.46875 -8.078125 L 1.46875 -9.65625 L 3.5 -9.984375 L 3.5 -8.078125 L 5.78125 -8.078125 L 5.78125 -6.46875 L 3.5 -6.46875 L 3.5 -2.78125 C 3.5 -2.382812 3.582031 -2.09375 3.75 -1.90625 C 3.914062 -1.71875 4.15625 -1.625 4.46875 -1.625 C 4.832031 -1.625 5.148438 -1.722656 5.421875 -1.921875 Z M 5.5625 -1.921875 "/></g></g><g transform="translate(38.546925, 54.433895)"><g><path d="M 4.6875 0.15625 C 3.894531 0.15625 3.203125 -0.00390625 2.609375 -0.328125 C 2.015625 -0.648438 1.550781 -1.125 1.21875 -1.75 C 0.882812 -2.382812 0.71875 -3.144531 0.71875 -4.03125 C 0.71875 -4.914062 0.882812 -5.671875 1.21875 -6.296875 C 1.550781 -6.929688 2.015625 -7.410156 2.609375 -7.734375 C 3.203125 -8.054688 3.894531 -8.21875 4.6875 -8.21875 C 5.476562 -8.21875 6.171875 -8.054688 6.765625 -7.734375 C 7.367188 -7.410156 7.832031 -6.929688 8.15625 -6.296875 C 8.488281 -5.671875 8.65625 -4.914062 8.65625 -4.03125 C 8.65625 -3.144531 8.488281 -2.382812 8.15625 -1.75 C 7.832031 -1.125 7.367188 -0.648438 6.765625 -0.328125 C 6.171875 -0.00390625 5.476562 0.15625 4.6875 0.15625 Z M 4.6875 -1.5625 C 5.9375 -1.5625 6.5625 -2.382812 6.5625 -4.03125 C 6.5625 -4.882812 6.398438 -5.507812 6.078125 -5.90625 C 5.765625 -6.300781 5.300781 -6.5 4.6875 -6.5 C 3.4375 -6.5 2.8125 -5.675781 2.8125 -4.03125 C 2.8125 -2.382812 3.4375 -1.5625 4.6875 -1.5625 Z M 4.6875 -1.5625 "/></g></g><g transform="translate(47.927911, 54.433895)"><g><path d="M 5.546875 0 L 3.140625 0 L 0.15625 -8.0625 L 2.28125 -8.0625 L 4.28125 -2.3125 L 4.453125 -2.3125 L 6.453125 -8.0625 L 8.53125 -8.0625 Z M 5.546875 0 "/></g></g><g transform="translate(56.606421, 54.433895)"><g><path d="M 3.140625 0.15625 C 2.628906 0.15625 2.179688 0.0625 1.796875 -0.125 C 1.421875 -0.320312 1.128906 -0.601562 0.921875 -0.96875 C 0.710938 -1.332031 0.609375 -1.773438 0.609375 -2.296875 C 0.609375 -2.773438 0.710938 -3.175781 0.921875 -3.5 C 1.128906 -3.820312 1.445312 -4.085938 1.875 -4.296875 C 2.300781 -4.503906 2.863281 -4.664062 3.5625 -4.78125 C 4.039062 -4.851562 4.40625 -4.9375 4.65625 -5.03125 C 4.90625 -5.125 5.070312 -5.226562 5.15625 -5.34375 C 5.25 -5.46875 5.296875 -5.617188 5.296875 -5.796875 C 5.296875 -6.054688 5.203125 -6.253906 5.015625 -6.390625 C 4.835938 -6.523438 4.539062 -6.59375 4.125 -6.59375 C 3.675781 -6.59375 3.25 -6.492188 2.84375 -6.296875 C 2.4375 -6.097656 2.085938 -5.832031 1.796875 -5.5 L 1.640625 -5.5 L 0.796875 -6.78125 C 1.203125 -7.238281 1.703125 -7.59375 2.296875 -7.84375 C 2.890625 -8.09375 3.535156 -8.21875 4.234375 -8.21875 C 5.296875 -8.21875 6.066406 -7.988281 6.546875 -7.53125 C 7.023438 -7.082031 7.265625 -6.441406 7.265625 -5.609375 L 7.265625 -2.109375 C 7.265625 -1.742188 7.421875 -1.5625 7.734375 -1.5625 C 7.859375 -1.5625 7.976562 -1.582031 8.09375 -1.625 L 8.203125 -1.609375 L 8.34375 -0.1875 C 8.238281 -0.113281 8.082031 -0.0507812 7.875 0 C 7.675781 0.0390625 7.457031 0.0625 7.21875 0.0625 C 6.738281 0.0625 6.363281 -0.03125 6.09375 -0.21875 C 5.820312 -0.40625 5.628906 -0.695312 5.515625 -1.09375 L 5.359375 -1.109375 C 4.960938 -0.265625 4.222656 0.15625 3.140625 0.15625 Z M 3.796875 -1.359375 C 4.265625 -1.359375 4.632812 -1.515625 4.90625 -1.828125 C 5.1875 -2.148438 5.328125 -2.585938 5.328125 -3.140625 L 5.328125 -3.96875 L 5.1875 -4 C 5.070312 -3.894531 4.914062 -3.8125 4.71875 -3.75 C 4.519531 -3.6875 4.234375 -3.625 3.859375 -3.5625 C 3.421875 -3.488281 3.101562 -3.359375 2.90625 -3.171875 C 2.71875 -2.992188 2.625 -2.742188 2.625 -2.421875 C 2.625 -2.078125 2.722656 -1.8125 2.921875 -1.625 C 3.128906 -1.445312 3.421875 -1.359375 3.796875 -1.359375 Z M 3.796875 -1.359375 "/></g></g><g transform="translate(65.116629, 54.433895)"><g><path d="M 3.34375 0.15625 C 2.625 0.15625 2.070312 -0.0390625 1.6875 -0.4375 C 1.300781 -0.832031 1.109375 -1.425781 1.109375 -2.21875 L 1.109375 -11.3125 L 3.140625 -11.3125 L 3.140625 -2.3125 C 3.140625 -1.8125 3.34375 -1.5625 3.75 -1.5625 C 3.863281 -1.5625 3.988281 -1.582031 4.125 -1.625 L 4.234375 -1.59375 L 4.40625 -0.03125 C 4.300781 0.0195312 4.15625 0.0625 3.96875 0.09375 C 3.78125 0.132812 3.570312 0.15625 3.34375 0.15625 Z M 3.34375 0.15625 "/></g></g><g transform="translate(69.755899, 54.433895)"><g/></g><g transform="translate(73.290233, 54.433895)"><g><path d="M 3.4375 0 L 1.390625 0 L 1.390625 -10.703125 L 3.8125 -10.703125 L 8.109375 -3.796875 L 8.296875 -3.828125 L 8.296875 -10.703125 L 10.328125 -10.703125 L 10.328125 0 L 8.171875 0 L 3.625 -7.359375 L 3.4375 -7.328125 Z M 3.4375 0 "/></g></g><g transform="translate(85.020125, 54.433895)"><g><path d="M 7.96875 -3.578125 L 2.78125 -3.578125 C 2.84375 -2.878906 3.046875 -2.367188 3.390625 -2.046875 C 3.734375 -1.722656 4.195312 -1.5625 4.78125 -1.5625 C 5.25 -1.5625 5.625 -1.644531 5.90625 -1.8125 C 6.195312 -1.988281 6.429688 -2.253906 6.609375 -2.609375 L 6.765625 -2.609375 L 8.109375 -1.75 C 7.847656 -1.1875 7.445312 -0.726562 6.90625 -0.375 C 6.375 -0.0195312 5.664062 0.15625 4.78125 0.15625 C 3.945312 0.15625 3.226562 0 2.625 -0.3125 C 2.019531 -0.632812 1.550781 -1.109375 1.21875 -1.734375 C 0.882812 -2.359375 0.71875 -3.125 0.71875 -4.03125 C 0.71875 -4.945312 0.890625 -5.71875 1.234375 -6.34375 C 1.585938 -6.976562 2.054688 -7.445312 2.640625 -7.75 C 3.234375 -8.0625 3.898438 -8.21875 4.640625 -8.21875 C 5.773438 -8.21875 6.644531 -7.914062 7.25 -7.3125 C 7.863281 -6.707031 8.171875 -5.820312 8.171875 -4.65625 C 8.171875 -4.226562 8.15625 -3.898438 8.125 -3.671875 Z M 6.234375 -4.890625 C 6.210938 -5.503906 6.066406 -5.953125 5.796875 -6.234375 C 5.535156 -6.515625 5.148438 -6.65625 4.640625 -6.65625 C 3.617188 -6.65625 3.015625 -6.066406 2.828125 -4.890625 Z M 6.234375 -4.890625 "/></g></g><g transform="translate(93.793761, 54.433895)"><g><path d="M 4.6875 0.15625 C 3.894531 0.15625 3.203125 -0.00390625 2.609375 -0.328125 C 2.015625 -0.648438 1.550781 -1.125 1.21875 -1.75 C 0.882812 -2.382812 0.71875 -3.144531 0.71875 -4.03125 C 0.71875 -4.914062 0.882812 -5.671875 1.21875 -6.296875 C 1.550781 -6.929688 2.015625 -7.410156 2.609375 -7.734375 C 3.203125 -8.054688 3.894531 -8.21875 4.6875 -8.21875 C 5.476562 -8.21875 6.171875 -8.054688 6.765625 -7.734375 C 7.367188 -7.410156 7.832031 -6.929688 8.15625 -6.296875 C 8.488281 -5.671875 8.65625 -4.914062 8.65625 -4.03125 C 8.65625 -3.144531 8.488281 -2.382812 8.15625 -1.75 C 7.832031 -1.125 7.367188 -0.648438 6.765625 -0.328125 C 6.171875 -0.00390625 5.476562 0.15625 4.6875 0.15625 Z M 4.6875 -1.5625 C 5.9375 -1.5625 6.5625 -2.382812 6.5625 -4.03125 C 6.5625 -4.882812 6.398438 -5.507812 6.078125 -5.90625 C 5.765625 -6.300781 5.300781 -6.5 4.6875 -6.5 C 3.4375 -6.5 2.8125 -5.675781 2.8125 -4.03125 C 2.8125 -2.382812 3.4375 -1.5625 4.6875 -1.5625 Z M 4.6875 -1.5625 "/></g></g><g transform="translate(103.174747, 54.433895)"><g/></g><g transform="translate(106.709081, 54.433895)"><g><path d="M 4.734375 0.15625 C 3.992188 0.15625 3.332031 0.0664062 2.75 -0.109375 C 2.175781 -0.296875 1.695312 -0.535156 1.3125 -0.828125 C 0.925781 -1.128906 0.632812 -1.460938 0.4375 -1.828125 L 1.59375 -3.234375 L 1.78125 -3.234375 C 2.101562 -2.765625 2.507812 -2.382812 3 -2.09375 C 3.5 -1.8125 4.078125 -1.671875 4.734375 -1.671875 C 5.304688 -1.671875 5.734375 -1.789062 6.015625 -2.03125 C 6.304688 -2.269531 6.453125 -2.597656 6.453125 -3.015625 C 6.453125 -3.273438 6.40625 -3.488281 6.3125 -3.65625 C 6.21875 -3.832031 6.0625 -3.976562 5.84375 -4.09375 C 5.632812 -4.21875 5.347656 -4.320312 4.984375 -4.40625 L 3.609375 -4.71875 C 2.648438 -4.945312 1.929688 -5.3125 1.453125 -5.8125 C 0.984375 -6.320312 0.75 -6.988281 0.75 -7.8125 C 0.75 -8.414062 0.898438 -8.945312 1.203125 -9.40625 C 1.503906 -9.863281 1.941406 -10.21875 2.515625 -10.46875 C 3.097656 -10.71875 3.796875 -10.84375 4.609375 -10.84375 C 5.429688 -10.84375 6.132812 -10.734375 6.71875 -10.515625 C 7.3125 -10.304688 7.804688 -9.976562 8.203125 -9.53125 L 7.15625 -8.09375 L 6.984375 -8.09375 C 6.679688 -8.40625 6.332031 -8.640625 5.9375 -8.796875 C 5.550781 -8.960938 5.109375 -9.046875 4.609375 -9.046875 C 4.023438 -9.046875 3.582031 -8.941406 3.28125 -8.734375 C 2.976562 -8.523438 2.828125 -8.242188 2.828125 -7.890625 C 2.828125 -7.546875 2.929688 -7.273438 3.140625 -7.078125 C 3.347656 -6.878906 3.71875 -6.722656 4.25 -6.609375 L 5.640625 -6.328125 C 6.679688 -6.109375 7.4375 -5.734375 7.90625 -5.203125 C 8.375 -4.679688 8.609375 -4 8.609375 -3.15625 C 8.609375 -2.488281 8.460938 -1.90625 8.171875 -1.40625 C 7.890625 -0.914062 7.457031 -0.53125 6.875 -0.25 C 6.289062 0.0195312 5.578125 0.15625 4.734375 0.15625 Z M 4.734375 0.15625 "/></g></g><g transform="translate(115.899813, 54.433895)"><g><path d="M 3.140625 0.15625 C 2.628906 0.15625 2.179688 0.0625 1.796875 -0.125 C 1.421875 -0.320312 1.128906 -0.601562 0.921875 -0.96875 C 0.710938 -1.332031 0.609375 -1.773438 0.609375 -2.296875 C 0.609375 -2.773438 0.710938 -3.175781 0.921875 -3.5 C 1.128906 -3.820312 1.445312 -4.085938 1.875 -4.296875 C 2.300781 -4.503906 2.863281 -4.664062 3.5625 -4.78125 C 4.039062 -4.851562 4.40625 -4.9375 4.65625 -5.03125 C 4.90625 -5.125 5.070312 -5.226562 5.15625 -5.34375 C 5.25 -5.46875 5.296875 -5.617188 5.296875 -5.796875 C 5.296875 -6.054688 5.203125 -6.253906 5.015625 -6.390625 C 4.835938 -6.523438 4.539062 -6.59375 4.125 -6.59375 C 3.675781 -6.59375 3.25 -6.492188 2.84375 -6.296875 C 2.4375 -6.097656 2.085938 -5.832031 1.796875 -5.5 L 1.640625 -5.5 L 0.796875 -6.78125 C 1.203125 -7.238281 1.703125 -7.59375 2.296875 -7.84375 C 2.890625 -8.09375 3.535156 -8.21875 4.234375 -8.21875 C 5.296875 -8.21875 6.066406 -7.988281 6.546875 -7.53125 C 7.023438 -7.082031 7.265625 -6.441406 7.265625 -5.609375 L 7.265625 -2.109375 C 7.265625 -1.742188 7.421875 -1.5625 7.734375 -1.5625 C 7.859375 -1.5625 7.976562 -1.582031 8.09375 -1.625 L 8.203125 -1.609375 L 8.34375 -0.1875 C 8.238281 -0.113281 8.082031 -0.0507812 7.875 0 C 7.675781 0.0390625 7.457031 0.0625 7.21875 0.0625 C 6.738281 0.0625 6.363281 -0.03125 6.09375 -0.21875 C 5.820312 -0.40625 5.628906 -0.695312 5.515625 -1.09375 L 5.359375 -1.109375 C 4.960938 -0.265625 4.222656 0.15625 3.140625 0.15625 Z M 3.796875 -1.359375 C 4.265625 -1.359375 4.632812 -1.515625 4.90625 -1.828125 C 5.1875 -2.148438 5.328125 -2.585938 5.328125 -3.140625 L 5.328125 -3.96875 L 5.1875 -4 C 5.070312 -3.894531 4.914062 -3.8125 4.71875 -3.75 C 4.519531 -3.6875 4.234375 -3.625 3.859375 -3.5625 C 3.421875 -3.488281 3.101562 -3.359375 2.90625 -3.171875 C 2.71875 -2.992188 2.625 -2.742188 2.625 -2.421875 C 2.625 -2.078125 2.722656 -1.8125 2.921875 -1.625 C 3.128906 -1.445312 3.421875 -1.359375 3.796875 -1.359375 Z M 3.796875 -1.359375 "/></g></g><g transform="translate(124.410021, 54.433895)"><g><path d="M 3.78125 0.15625 C 3.226562 0.15625 2.722656 0.09375 2.265625 -0.03125 C 1.804688 -0.164062 1.410156 -0.347656 1.078125 -0.578125 C 0.753906 -0.804688 0.515625 -1.066406 0.359375 -1.359375 L 1.5 -2.5625 L 1.640625 -2.5625 C 1.910156 -2.207031 2.226562 -1.9375 2.59375 -1.75 C 2.957031 -1.570312 3.359375 -1.484375 3.796875 -1.484375 C 4.179688 -1.484375 4.472656 -1.550781 4.671875 -1.6875 C 4.878906 -1.832031 4.984375 -2.039062 4.984375 -2.3125 C 4.984375 -2.507812 4.910156 -2.675781 4.765625 -2.8125 C 4.617188 -2.957031 4.382812 -3.066406 4.0625 -3.140625 L 3 -3.40625 C 2.195312 -3.59375 1.609375 -3.878906 1.234375 -4.265625 C 0.867188 -4.660156 0.6875 -5.160156 0.6875 -5.765625 C 0.6875 -6.273438 0.816406 -6.710938 1.078125 -7.078125 C 1.335938 -7.453125 1.695312 -7.734375 2.15625 -7.921875 C 2.625 -8.117188 3.171875 -8.21875 3.796875 -8.21875 C 4.515625 -8.21875 5.113281 -8.113281 5.59375 -7.90625 C 6.070312 -7.695312 6.445312 -7.414062 6.71875 -7.0625 L 5.640625 -5.890625 L 5.484375 -5.890625 C 5.265625 -6.148438 5.015625 -6.335938 4.734375 -6.453125 C 4.453125 -6.566406 4.140625 -6.625 3.796875 -6.625 C 2.992188 -6.625 2.59375 -6.375 2.59375 -5.875 C 2.59375 -5.664062 2.664062 -5.492188 2.8125 -5.359375 C 2.957031 -5.234375 3.21875 -5.128906 3.59375 -5.046875 L 4.59375 -4.828125 C 5.414062 -4.648438 6.015625 -4.367188 6.390625 -3.984375 C 6.765625 -3.597656 6.953125 -3.078125 6.953125 -2.421875 C 6.953125 -1.910156 6.828125 -1.457031 6.578125 -1.0625 C 6.328125 -0.675781 5.960938 -0.375 5.484375 -0.15625 C 5.003906 0.0507812 4.4375 0.15625 3.78125 0.15625 Z M 3.78125 0.15625 "/></g></g><g transform="translate(131.85188, 54.433895)"><g><path d="M 4.6875 0.15625 C 3.894531 0.15625 3.203125 -0.00390625 2.609375 -0.328125 C 2.015625 -0.648438 1.550781 -1.125 1.21875 -1.75 C 0.882812 -2.382812 0.71875 -3.144531 0.71875 -4.03125 C 0.71875 -4.914062 0.882812 -5.671875 1.21875 -6.296875 C 1.550781 -6.929688 2.015625 -7.410156 2.609375 -7.734375 C 3.203125 -8.054688 3.894531 -8.21875 4.6875 -8.21875 C 5.476562 -8.21875 6.171875 -8.054688 6.765625 -7.734375 C 7.367188 -7.410156 7.832031 -6.929688 8.15625 -6.296875 C 8.488281 -5.671875 8.65625 -4.914062 8.65625 -4.03125 C 8.65625 -3.144531 8.488281 -2.382812 8.15625 -1.75 C 7.832031 -1.125 7.367188 -0.648438 6.765625 -0.328125 C 6.171875 -0.00390625 5.476562 0.15625 4.6875 0.15625 Z M 4.6875 -1.5625 C 5.9375 -1.5625 6.5625 -2.382812 6.5625 -4.03125 C 6.5625 -4.882812 6.398438 -5.507812 6.078125 -5.90625 C 5.765625 -6.300781 5.300781 -6.5 4.6875 -6.5 C 3.4375 -6.5 2.8125 -5.675781 2.8125 -4.03125 C 2.8125 -2.382812 3.4375 -1.5625 4.6875 -1.5625 Z M 4.6875 -1.5625 "/></g></g><g transform="translate(141.232866, 54.433895)"><g><path d="M 1.15625 0 L 1.15625 -8.0625 L 3.109375 -8.0625 L 3.109375 -6.890625 L 3.265625 -6.84375 C 3.765625 -7.757812 4.578125 -8.21875 5.703125 -8.21875 C 6.640625 -8.21875 7.328125 -7.960938 7.765625 -7.453125 C 8.203125 -6.953125 8.421875 -6.21875 8.421875 -5.25 L 8.421875 0 L 6.390625 0 L 6.390625 -5 C 6.390625 -5.53125 6.28125 -5.914062 6.0625 -6.15625 C 5.851562 -6.394531 5.507812 -6.515625 5.03125 -6.515625 C 4.445312 -6.515625 3.992188 -6.328125 3.671875 -5.953125 C 3.347656 -5.578125 3.1875 -4.984375 3.1875 -4.171875 L 3.1875 0 Z M 1.15625 0 "/></g></g><g transform="translate(150.687027, 54.433895)"><g><path d="M 4.6875 0.15625 C 3.894531 0.15625 3.203125 -0.00390625 2.609375 -0.328125 C 2.015625 -0.648438 1.550781 -1.125 1.21875 -1.75 C 0.882812 -2.382812 0.71875 -3.144531 0.71875 -4.03125 C 0.71875 -4.914062 0.882812 -5.671875 1.21875 -6.296875 C 1.550781 -6.929688 2.015625 -7.410156 2.609375 -7.734375 C 3.203125 -8.054688 3.894531 -8.21875 4.6875 -8.21875 C 5.476562 -8.21875 6.171875 -8.054688 6.765625 -7.734375 C 7.367188 -7.410156 7.832031 -6.929688 8.15625 -6.296875 C 8.488281 -5.671875 8.65625 -4.914062 8.65625 -4.03125 C 8.65625 -3.144531 8.488281 -2.382812 8.15625 -1.75 C 7.832031 -1.125 7.367188 -0.648438 6.765625 -0.328125 C 6.171875 -0.00390625 5.476562 0.15625 4.6875 0.15625 Z M 4.6875 -1.5625 C 5.9375 -1.5625 6.5625 -2.382812 6.5625 -4.03125 C 6.5625 -4.882812 6.398438 -5.507812 6.078125 -5.90625 C 5.765625 -6.300781 5.300781 -6.5 4.6875 -6.5 C 3.4375 -6.5 2.8125 -5.675781 2.8125 -4.03125 C 2.8125 -2.382812 3.4375 -1.5625 4.6875 -1.5625 Z M 4.6875 -1.5625 "/></g></g><g transform="translate(160.068013, 54.433895)"><g/></g><g transform="translate(163.602346, 54.433895)"><g><path d="M 5.125 -4.296875 L 0.640625 -4.296875 L 0.640625 -6.09375 L 5.125 -6.09375 Z M 5.125 -4.296875 "/></g></g></g><g fill="#8284fa" fill-opacity="0.4"><g transform="translate(170.041053, 55.096194)"><g/></g></g><g fill="#4ea8de" fill-opacity="1"><g transform="translate(169.378751, 54.433895)"><g/></g></g><g fill="#8284fa" fill-opacity="0.4"><g transform="translate(173.57685, 55.096194)"><g/></g></g><g fill="#8284fa" fill-opacity="1"><g transform="translate(172.914549, 54.433895)"><g/></g></g><g fill="#8284fa" fill-opacity="0.4"><g transform="translate(177.112648, 55.096194)"><g><path d="M 0.515625 -0.84375 C 0.515625 -1.4375 0.578125 -1.9375 0.703125 -2.34375 C 0.835938 -2.75 1.050781 -3.117188 1.34375 -3.453125 C 1.632812 -3.785156 2.050781 -4.144531 2.59375 -4.53125 L 4.015625 -5.5625 C 4.410156 -5.84375 4.710938 -6.082031 4.921875 -6.28125 C 5.140625 -6.488281 5.300781 -6.703125 5.40625 -6.921875 C 5.519531 -7.148438 5.578125 -7.410156 5.578125 -7.703125 C 5.578125 -8.128906 5.445312 -8.460938 5.1875 -8.703125 C 4.925781 -8.941406 4.53125 -9.0625 4 -9.0625 C 3.488281 -9.0625 3.035156 -8.9375 2.640625 -8.6875 C 2.253906 -8.445312 1.929688 -8.117188 1.671875 -7.703125 L 1.53125 -7.671875 L 0.359375 -8.96875 C 0.742188 -9.53125 1.238281 -9.984375 1.84375 -10.328125 C 2.457031 -10.671875 3.203125 -10.84375 4.078125 -10.84375 C 4.878906 -10.84375 5.550781 -10.710938 6.09375 -10.453125 C 6.632812 -10.191406 7.035156 -9.832031 7.296875 -9.375 C 7.554688 -8.914062 7.6875 -8.394531 7.6875 -7.8125 C 7.6875 -7.300781 7.578125 -6.832031 7.359375 -6.40625 C 7.148438 -5.988281 6.859375 -5.601562 6.484375 -5.25 C 6.109375 -4.894531 5.628906 -4.515625 5.046875 -4.109375 L 3.78125 -3.21875 C 3.394531 -2.945312 3.125 -2.703125 2.96875 -2.484375 C 2.820312 -2.273438 2.75 -2.035156 2.75 -1.765625 L 7.578125 -1.765625 L 7.578125 0 L 0.515625 0 Z M 0.515625 -0.84375 "/></g></g><g transform="translate(185.461872, 55.096194)"><g><path d="M 5.109375 0.15625 C 4.304688 0.15625 3.585938 -0.0234375 2.953125 -0.390625 C 2.328125 -0.765625 1.828125 -1.351562 1.453125 -2.15625 C 1.085938 -2.96875 0.90625 -4 0.90625 -5.25 C 0.90625 -6.507812 1.097656 -7.554688 1.484375 -8.390625 C 1.878906 -9.234375 2.410156 -9.851562 3.078125 -10.25 C 3.753906 -10.644531 4.53125 -10.84375 5.40625 -10.84375 C 6.132812 -10.84375 6.757812 -10.738281 7.28125 -10.53125 C 7.800781 -10.320312 8.210938 -10.015625 8.515625 -9.609375 L 7.46875 -8.28125 L 7.28125 -8.28125 C 6.84375 -8.8125 6.21875 -9.078125 5.40625 -9.078125 C 3.882812 -9.078125 3.109375 -7.960938 3.078125 -5.734375 L 3.234375 -5.671875 C 3.472656 -6.128906 3.796875 -6.476562 4.203125 -6.71875 C 4.617188 -6.96875 5.132812 -7.09375 5.75 -7.09375 C 6.414062 -7.09375 6.988281 -6.953125 7.46875 -6.671875 C 7.945312 -6.390625 8.316406 -5.988281 8.578125 -5.46875 C 8.835938 -4.945312 8.96875 -4.328125 8.96875 -3.609375 C 8.96875 -2.828125 8.8125 -2.148438 8.5 -1.578125 C 8.195312 -1.015625 7.753906 -0.582031 7.171875 -0.28125 C 6.585938 0.0078125 5.898438 0.15625 5.109375 0.15625 Z M 5.078125 -1.65625 C 5.617188 -1.65625 6.046875 -1.816406 6.359375 -2.140625 C 6.671875 -2.460938 6.828125 -2.914062 6.828125 -3.5 C 6.828125 -4.082031 6.671875 -4.535156 6.359375 -4.859375 C 6.046875 -5.191406 5.617188 -5.359375 5.078125 -5.359375 C 4.710938 -5.359375 4.394531 -5.28125 4.125 -5.125 C 3.851562 -4.976562 3.644531 -4.765625 3.5 -4.484375 C 3.351562 -4.203125 3.28125 -3.875 3.28125 -3.5 C 3.28125 -2.9375 3.4375 -2.488281 3.75 -2.15625 C 4.070312 -1.820312 4.515625 -1.65625 5.078125 -1.65625 Z M 5.078125 -1.65625 "/></g></g><g transform="translate(195.179461, 55.096194)"><g><path d="M 5.21875 0.15625 C 4.351562 0.15625 3.59375 -0.0351562 2.9375 -0.421875 C 2.289062 -0.816406 1.789062 -1.421875 1.4375 -2.234375 C 1.082031 -3.054688 0.90625 -4.09375 0.90625 -5.34375 C 0.90625 -6.601562 1.082031 -7.640625 1.4375 -8.453125 C 1.789062 -9.273438 2.289062 -9.878906 2.9375 -10.265625 C 3.59375 -10.648438 4.351562 -10.84375 5.21875 -10.84375 C 6.101562 -10.84375 6.867188 -10.648438 7.515625 -10.265625 C 8.160156 -9.878906 8.660156 -9.273438 9.015625 -8.453125 C 9.378906 -7.640625 9.5625 -6.601562 9.5625 -5.34375 C 9.5625 -4.09375 9.378906 -3.054688 9.015625 -2.234375 C 8.660156 -1.421875 8.160156 -0.816406 7.515625 -0.421875 C 6.867188 -0.0351562 6.101562 0.15625 5.21875 0.15625 Z M 5.21875 -1.640625 C 5.695312 -1.640625 6.097656 -1.753906 6.421875 -1.984375 C 6.742188 -2.210938 6.988281 -2.597656 7.15625 -3.140625 C 7.332031 -3.691406 7.421875 -4.425781 7.421875 -5.34375 C 7.421875 -6.257812 7.332031 -6.988281 7.15625 -7.53125 C 6.988281 -8.082031 6.742188 -8.472656 6.421875 -8.703125 C 6.097656 -8.941406 5.695312 -9.0625 5.21875 -9.0625 C 4.738281 -9.0625 4.335938 -8.941406 4.015625 -8.703125 C 3.703125 -8.472656 3.457031 -8.082031 3.28125 -7.53125 C 3.101562 -6.988281 3.015625 -6.257812 3.015625 -5.34375 C 3.015625 -4.425781 3.101562 -3.691406 3.28125 -3.140625 C 3.457031 -2.597656 3.703125 -2.210938 4.015625 -1.984375 C 4.335938 -1.753906 4.738281 -1.640625 5.21875 -1.640625 Z M 5.21875 -1.640625 "/></g></g><g transform="translate(205.636114, 55.096194)"><g><path d="M 0.515625 -0.84375 C 0.515625 -1.4375 0.578125 -1.9375 0.703125 -2.34375 C 0.835938 -2.75 1.050781 -3.117188 1.34375 -3.453125 C 1.632812 -3.785156 2.050781 -4.144531 2.59375 -4.53125 L 4.015625 -5.5625 C 4.410156 -5.84375 4.710938 -6.082031 4.921875 -6.28125 C 5.140625 -6.488281 5.300781 -6.703125 5.40625 -6.921875 C 5.519531 -7.148438 5.578125 -7.410156 5.578125 -7.703125 C 5.578125 -8.128906 5.445312 -8.460938 5.1875 -8.703125 C 4.925781 -8.941406 4.53125 -9.0625 4 -9.0625 C 3.488281 -9.0625 3.035156 -8.9375 2.640625 -8.6875 C 2.253906 -8.445312 1.929688 -8.117188 1.671875 -7.703125 L 1.53125 -7.671875 L 0.359375 -8.96875 C 0.742188 -9.53125 1.238281 -9.984375 1.84375 -10.328125 C 2.457031 -10.671875 3.203125 -10.84375 4.078125 -10.84375 C 4.878906 -10.84375 5.550781 -10.710938 6.09375 -10.453125 C 6.632812 -10.191406 7.035156 -9.832031 7.296875 -9.375 C 7.554688 -8.914062 7.6875 -8.394531 7.6875 -7.8125 C 7.6875 -7.300781 7.578125 -6.832031 7.359375 -6.40625 C 7.148438 -5.988281 6.859375 -5.601562 6.484375 -5.25 C 6.109375 -4.894531 5.628906 -4.515625 5.046875 -4.109375 L 3.78125 -3.21875 C 3.394531 -2.945312 3.125 -2.703125 2.96875 -2.484375 C 2.820312 -2.273438 2.75 -2.035156 2.75 -1.765625 L 7.578125 -1.765625 L 7.578125 0 L 0.515625 0 Z M 0.515625 -0.84375 "/></g></g><g transform="translate(213.985338, 55.096194)"><g><path d="M 0.5625 0 L 0.5625 -1.75 L 3.140625 -1.75 L 3.140625 -8.40625 L 2.984375 -8.453125 C 2.609375 -8.273438 2.242188 -8.132812 1.890625 -8.03125 C 1.546875 -7.925781 1.144531 -7.847656 0.6875 -7.796875 L 0.6875 -9.59375 C 1.875 -9.84375 2.832031 -10.210938 3.5625 -10.703125 L 5.234375 -10.703125 L 5.234375 -1.75 L 7.546875 -1.75 L 7.546875 0 Z M 0.5625 0 "/></g></g><g transform="translate(221.880879, 55.096194)"><g><path d="M 4.453125 0.15625 C 3.390625 0.15625 2.539062 -0.0664062 1.90625 -0.515625 C 1.28125 -0.960938 0.875 -1.59375 0.6875 -2.40625 L 2.296875 -3.109375 L 2.453125 -3.078125 C 2.609375 -2.609375 2.84375 -2.253906 3.15625 -2.015625 C 3.46875 -1.773438 3.894531 -1.65625 4.4375 -1.65625 C 4.988281 -1.65625 5.414062 -1.8125 5.71875 -2.125 C 6.019531 -2.445312 6.171875 -2.921875 6.171875 -3.546875 C 6.171875 -4.171875 6.019531 -4.644531 5.71875 -4.96875 C 5.425781 -5.289062 5.019531 -5.453125 4.5 -5.453125 C 4.101562 -5.453125 3.769531 -5.363281 3.5 -5.1875 C 3.238281 -5.019531 3.015625 -4.769531 2.828125 -4.4375 L 1.078125 -4.5625 L 1.296875 -10.703125 L 7.671875 -10.703125 L 7.671875 -8.921875 L 3.078125 -8.921875 L 2.984375 -6.1875 L 3.125 -6.15625 C 3.375 -6.488281 3.671875 -6.738281 4.015625 -6.90625 C 4.367188 -7.070312 4.789062 -7.15625 5.28125 -7.15625 C 5.882812 -7.15625 6.414062 -7.019531 6.875 -6.75 C 7.332031 -6.476562 7.679688 -6.070312 7.921875 -5.53125 C 8.171875 -5 8.296875 -4.347656 8.296875 -3.578125 C 8.296875 -2.796875 8.144531 -2.125 7.84375 -1.5625 C 7.550781 -1.007812 7.113281 -0.582031 6.53125 -0.28125 C 5.957031 0.0078125 5.265625 0.15625 4.453125 0.15625 Z M 4.453125 0.15625 "/></g></g><g transform="translate(230.895992, 55.096194)"><g><path d="M 4.59375 0.15625 C 3.738281 0.15625 3.015625 0.0234375 2.421875 -0.234375 C 1.835938 -0.503906 1.394531 -0.878906 1.09375 -1.359375 C 0.800781 -1.847656 0.65625 -2.429688 0.65625 -3.109375 C 0.65625 -3.722656 0.804688 -4.253906 1.109375 -4.703125 C 1.421875 -5.160156 1.875 -5.519531 2.46875 -5.78125 L 2.46875 -5.9375 C 2.050781 -6.195312 1.726562 -6.503906 1.5 -6.859375 C 1.28125 -7.210938 1.171875 -7.628906 1.171875 -8.109375 C 1.171875 -8.648438 1.300781 -9.125 1.5625 -9.53125 C 1.832031 -9.945312 2.222656 -10.269531 2.734375 -10.5 C 3.253906 -10.726562 3.875 -10.84375 4.59375 -10.84375 C 5.300781 -10.84375 5.910156 -10.726562 6.421875 -10.5 C 6.941406 -10.269531 7.332031 -9.945312 7.59375 -9.53125 C 7.863281 -9.125 8 -8.648438 8 -8.109375 C 8 -7.628906 7.882812 -7.210938 7.65625 -6.859375 C 7.4375 -6.503906 7.113281 -6.195312 6.6875 -5.9375 L 6.6875 -5.78125 C 7.3125 -5.53125 7.769531 -5.175781 8.0625 -4.71875 C 8.363281 -4.257812 8.515625 -3.722656 8.515625 -3.109375 C 8.515625 -2.429688 8.363281 -1.847656 8.0625 -1.359375 C 7.757812 -0.878906 7.316406 -0.503906 6.734375 -0.234375 C 6.148438 0.0234375 5.4375 0.15625 4.59375 0.15625 Z M 4.59375 -6.53125 C 5.007812 -6.53125 5.34375 -6.644531 5.59375 -6.875 C 5.851562 -7.113281 5.984375 -7.441406 5.984375 -7.859375 C 5.984375 -8.273438 5.851562 -8.601562 5.59375 -8.84375 C 5.34375 -9.082031 5.007812 -9.203125 4.59375 -9.203125 C 4.15625 -9.203125 3.8125 -9.082031 3.5625 -8.84375 C 3.3125 -8.613281 3.1875 -8.285156 3.1875 -7.859375 C 3.1875 -7.441406 3.3125 -7.113281 3.5625 -6.875 C 3.8125 -6.644531 4.15625 -6.53125 4.59375 -6.53125 Z M 4.59375 -1.640625 C 5.15625 -1.640625 5.59375 -1.78125 5.90625 -2.0625 C 6.21875 -2.351562 6.375 -2.753906 6.375 -3.265625 C 6.375 -3.773438 6.21875 -4.171875 5.90625 -4.453125 C 5.59375 -4.734375 5.15625 -4.875 4.59375 -4.875 C 4.007812 -4.875 3.5625 -4.734375 3.25 -4.453125 C 2.9375 -4.171875 2.78125 -3.773438 2.78125 -3.265625 C 2.78125 -2.753906 2.9375 -2.351562 3.25 -2.0625 C 3.5625 -1.78125 4.007812 -1.640625 4.59375 -1.640625 Z M 4.59375 -1.640625 "/></g></g><g transform="translate(240.072089, 55.096194)"><g><path d="M 0.515625 -0.84375 C 0.515625 -1.4375 0.578125 -1.9375 0.703125 -2.34375 C 0.835938 -2.75 1.050781 -3.117188 1.34375 -3.453125 C 1.632812 -3.785156 2.050781 -4.144531 2.59375 -4.53125 L 4.015625 -5.5625 C 4.410156 -5.84375 4.710938 -6.082031 4.921875 -6.28125 C 5.140625 -6.488281 5.300781 -6.703125 5.40625 -6.921875 C 5.519531 -7.148438 5.578125 -7.410156 5.578125 -7.703125 C 5.578125 -8.128906 5.445312 -8.460938 5.1875 -8.703125 C 4.925781 -8.941406 4.53125 -9.0625 4 -9.0625 C 3.488281 -9.0625 3.035156 -8.9375 2.640625 -8.6875 C 2.253906 -8.445312 1.929688 -8.117188 1.671875 -7.703125 L 1.53125 -7.671875 L 0.359375 -8.96875 C 0.742188 -9.53125 1.238281 -9.984375 1.84375 -10.328125 C 2.457031 -10.671875 3.203125 -10.84375 4.078125 -10.84375 C 4.878906 -10.84375 5.550781 -10.710938 6.09375 -10.453125 C 6.632812 -10.191406 7.035156 -9.832031 7.296875 -9.375 C 7.554688 -8.914062 7.6875 -8.394531 7.6875 -7.8125 C 7.6875 -7.300781 7.578125 -6.832031 7.359375 -6.40625 C 7.148438 -5.988281 6.859375 -5.601562 6.484375 -5.25 C 6.109375 -4.894531 5.628906 -4.515625 5.046875 -4.109375 L 3.78125 -3.21875 C 3.394531 -2.945312 3.125 -2.703125 2.96875 -2.484375 C 2.820312 -2.273438 2.75 -2.035156 2.75 -1.765625 L 7.578125 -1.765625 L 7.578125 0 L 0.515625 0 Z M 0.515625 -0.84375 "/></g></g><g transform="translate(248.421313, 55.096194)"><g><path d="M 4.359375 0.15625 C 3.210938 0.15625 2.300781 -0.0820312 1.625 -0.5625 C 0.957031 -1.050781 0.53125 -1.742188 0.34375 -2.640625 L 1.953125 -3.375 L 2.125 -3.34375 C 2.300781 -2.757812 2.554688 -2.332031 2.890625 -2.0625 C 3.222656 -1.789062 3.6875 -1.65625 4.28125 -1.65625 C 4.863281 -1.65625 5.304688 -1.785156 5.609375 -2.046875 C 5.910156 -2.316406 6.0625 -2.710938 6.0625 -3.234375 C 6.0625 -3.734375 5.910156 -4.113281 5.609375 -4.375 C 5.304688 -4.644531 4.863281 -4.78125 4.28125 -4.78125 L 2.671875 -4.78125 L 2.671875 -6.4375 L 4.078125 -6.4375 C 4.554688 -6.4375 4.9375 -6.550781 5.21875 -6.78125 C 5.5 -7.019531 5.640625 -7.363281 5.640625 -7.8125 C 5.640625 -8.25 5.503906 -8.578125 5.234375 -8.796875 C 4.972656 -9.023438 4.613281 -9.140625 4.15625 -9.140625 C 3.675781 -9.140625 3.25 -9.023438 2.875 -8.796875 C 2.507812 -8.578125 2.210938 -8.273438 1.984375 -7.890625 L 1.828125 -7.859375 L 0.703125 -9.15625 C 1.078125 -9.664062 1.5625 -10.070312 2.15625 -10.375 C 2.75 -10.6875 3.453125 -10.84375 4.265625 -10.84375 C 5.390625 -10.84375 6.242188 -10.609375 6.828125 -10.140625 C 7.421875 -9.679688 7.71875 -9.023438 7.71875 -8.171875 C 7.71875 -7.660156 7.597656 -7.222656 7.359375 -6.859375 C 7.117188 -6.492188 6.773438 -6.179688 6.328125 -5.921875 L 6.328125 -5.765625 C 7.566406 -5.328125 8.1875 -4.445312 8.1875 -3.125 C 8.1875 -2.46875 8.039062 -1.890625 7.75 -1.390625 C 7.46875 -0.898438 7.039062 -0.519531 6.46875 -0.25 C 5.90625 0.0195312 5.203125 0.15625 4.359375 0.15625 Z M 4.359375 0.15625 "/></g></g><g transform="translate(257.275442, 55.096194)"><g><path d="M 4.453125 0.15625 C 3.390625 0.15625 2.539062 -0.0664062 1.90625 -0.515625 C 1.28125 -0.960938 0.875 -1.59375 0.6875 -2.40625 L 2.296875 -3.109375 L 2.453125 -3.078125 C 2.609375 -2.609375 2.84375 -2.253906 3.15625 -2.015625 C 3.46875 -1.773438 3.894531 -1.65625 4.4375 -1.65625 C 4.988281 -1.65625 5.414062 -1.8125 5.71875 -2.125 C 6.019531 -2.445312 6.171875 -2.921875 6.171875 -3.546875 C 6.171875 -4.171875 6.019531 -4.644531 5.71875 -4.96875 C 5.425781 -5.289062 5.019531 -5.453125 4.5 -5.453125 C 4.101562 -5.453125 3.769531 -5.363281 3.5 -5.1875 C 3.238281 -5.019531 3.015625 -4.769531 2.828125 -4.4375 L 1.078125 -4.5625 L 1.296875 -10.703125 L 7.671875 -10.703125 L 7.671875 -8.921875 L 3.078125 -8.921875 L 2.984375 -6.1875 L 3.125 -6.15625 C 3.375 -6.488281 3.671875 -6.738281 4.015625 -6.90625 C 4.367188 -7.070312 4.789062 -7.15625 5.28125 -7.15625 C 5.882812 -7.15625 6.414062 -7.019531 6.875 -6.75 C 7.332031 -6.476562 7.679688 -6.070312 7.921875 -5.53125 C 8.171875 -5 8.296875 -4.347656 8.296875 -3.578125 C 8.296875 -2.796875 8.144531 -2.125 7.84375 -1.5625 C 7.550781 -1.007812 7.113281 -0.582031 6.53125 -0.28125 C 5.957031 0.0078125 5.265625 0.15625 4.453125 0.15625 Z M 4.453125 0.15625 "/></g></g></g><g fill="#8284fa" fill-opacity="1"><g transform="translate(176.450347, 54.433895)"><g><path d="M 0.515625 -0.84375 C 0.515625 -1.4375 0.578125 -1.9375 0.703125 -2.34375 C 0.835938 -2.75 1.050781 -3.117188 1.34375 -3.453125 C 1.632812 -3.785156 2.050781 -4.144531 2.59375 -4.53125 L 4.015625 -5.5625 C 4.410156 -5.84375 4.710938 -6.082031 4.921875 -6.28125 C 5.140625 -6.488281 5.300781 -6.703125 5.40625 -6.921875 C 5.519531 -7.148438 5.578125 -7.410156 5.578125 -7.703125 C 5.578125 -8.128906 5.445312 -8.460938 5.1875 -8.703125 C 4.925781 -8.941406 4.53125 -9.0625 4 -9.0625 C 3.488281 -9.0625 3.035156 -8.9375 2.640625 -8.6875 C 2.253906 -8.445312 1.929688 -8.117188 1.671875 -7.703125 L 1.53125 -7.671875 L 0.359375 -8.96875 C 0.742188 -9.53125 1.238281 -9.984375 1.84375 -10.328125 C 2.457031 -10.671875 3.203125 -10.84375 4.078125 -10.84375 C 4.878906 -10.84375 5.550781 -10.710938 6.09375 -10.453125 C 6.632812 -10.191406 7.035156 -9.832031 7.296875 -9.375 C 7.554688 -8.914062 7.6875 -8.394531 7.6875 -7.8125 C 7.6875 -7.300781 7.578125 -6.832031 7.359375 -6.40625 C 7.148438 -5.988281 6.859375 -5.601562 6.484375 -5.25 C 6.109375 -4.894531 5.628906 -4.515625 5.046875 -4.109375 L 3.78125 -3.21875 C 3.394531 -2.945312 3.125 -2.703125 2.96875 -2.484375 C 2.820312 -2.273438 2.75 -2.035156 2.75 -1.765625 L 7.578125 -1.765625 L 7.578125 0 L 0.515625 0 Z M 0.515625 -0.84375 "/></g></g><g transform="translate(184.79957, 54.433895)"><g><path d="M 5.109375 0.15625 C 4.304688 0.15625 3.585938 -0.0234375 2.953125 -0.390625 C 2.328125 -0.765625 1.828125 -1.351562 1.453125 -2.15625 C 1.085938 -2.96875 0.90625 -4 0.90625 -5.25 C 0.90625 -6.507812 1.097656 -7.554688 1.484375 -8.390625 C 1.878906 -9.234375 2.410156 -9.851562 3.078125 -10.25 C 3.753906 -10.644531 4.53125 -10.84375 5.40625 -10.84375 C 6.132812 -10.84375 6.757812 -10.738281 7.28125 -10.53125 C 7.800781 -10.320312 8.210938 -10.015625 8.515625 -9.609375 L 7.46875 -8.28125 L 7.28125 -8.28125 C 6.84375 -8.8125 6.21875 -9.078125 5.40625 -9.078125 C 3.882812 -9.078125 3.109375 -7.960938 3.078125 -5.734375 L 3.234375 -5.671875 C 3.472656 -6.128906 3.796875 -6.476562 4.203125 -6.71875 C 4.617188 -6.96875 5.132812 -7.09375 5.75 -7.09375 C 6.414062 -7.09375 6.988281 -6.953125 7.46875 -6.671875 C 7.945312 -6.390625 8.316406 -5.988281 8.578125 -5.46875 C 8.835938 -4.945312 8.96875 -4.328125 8.96875 -3.609375 C 8.96875 -2.828125 8.8125 -2.148438 8.5 -1.578125 C 8.195312 -1.015625 7.753906 -0.582031 7.171875 -0.28125 C 6.585938 0.0078125 5.898438 0.15625 5.109375 0.15625 Z M 5.078125 -1.65625 C 5.617188 -1.65625 6.046875 -1.816406 6.359375 -2.140625 C 6.671875 -2.460938 6.828125 -2.914062 6.828125 -3.5 C 6.828125 -4.082031 6.671875 -4.535156 6.359375 -4.859375 C 6.046875 -5.191406 5.617188 -5.359375 5.078125 -5.359375 C 4.710938 -5.359375 4.394531 -5.28125 4.125 -5.125 C 3.851562 -4.976562 3.644531 -4.765625 3.5 -4.484375 C 3.351562 -4.203125 3.28125 -3.875 3.28125 -3.5 C 3.28125 -2.9375 3.4375 -2.488281 3.75 -2.15625 C 4.070312 -1.820312 4.515625 -1.65625 5.078125 -1.65625 Z M 5.078125 -1.65625 "/></g></g><g transform="translate(194.51716, 54.433895)"><g><path d="M 5.21875 0.15625 C 4.351562 0.15625 3.59375 -0.0351562 2.9375 -0.421875 C 2.289062 -0.816406 1.789062 -1.421875 1.4375 -2.234375 C 1.082031 -3.054688 0.90625 -4.09375 0.90625 -5.34375 C 0.90625 -6.601562 1.082031 -7.640625 1.4375 -8.453125 C 1.789062 -9.273438 2.289062 -9.878906 2.9375 -10.265625 C 3.59375 -10.648438 4.351562 -10.84375 5.21875 -10.84375 C 6.101562 -10.84375 6.867188 -10.648438 7.515625 -10.265625 C 8.160156 -9.878906 8.660156 -9.273438 9.015625 -8.453125 C 9.378906 -7.640625 9.5625 -6.601562 9.5625 -5.34375 C 9.5625 -4.09375 9.378906 -3.054688 9.015625 -2.234375 C 8.660156 -1.421875 8.160156 -0.816406 7.515625 -0.421875 C 6.867188 -0.0351562 6.101562 0.15625 5.21875 0.15625 Z M 5.21875 -1.640625 C 5.695312 -1.640625 6.097656 -1.753906 6.421875 -1.984375 C 6.742188 -2.210938 6.988281 -2.597656 7.15625 -3.140625 C 7.332031 -3.691406 7.421875 -4.425781 7.421875 -5.34375 C 7.421875 -6.257812 7.332031 -6.988281 7.15625 -7.53125 C 6.988281 -8.082031 6.742188 -8.472656 6.421875 -8.703125 C 6.097656 -8.941406 5.695312 -9.0625 5.21875 -9.0625 C 4.738281 -9.0625 4.335938 -8.941406 4.015625 -8.703125 C 3.703125 -8.472656 3.457031 -8.082031 3.28125 -7.53125 C 3.101562 -6.988281 3.015625 -6.257812 3.015625 -5.34375 C 3.015625 -4.425781 3.101562 -3.691406 3.28125 -3.140625 C 3.457031 -2.597656 3.703125 -2.210938 4.015625 -1.984375 C 4.335938 -1.753906 4.738281 -1.640625 5.21875 -1.640625 Z M 5.21875 -1.640625 "/></g></g><g transform="translate(204.973813, 54.433895)"><g><path d="M 0.515625 -0.84375 C 0.515625 -1.4375 0.578125 -1.9375 0.703125 -2.34375 C 0.835938 -2.75 1.050781 -3.117188 1.34375 -3.453125 C 1.632812 -3.785156 2.050781 -4.144531 2.59375 -4.53125 L 4.015625 -5.5625 C 4.410156 -5.84375 4.710938 -6.082031 4.921875 -6.28125 C 5.140625 -6.488281 5.300781 -6.703125 5.40625 -6.921875 C 5.519531 -7.148438 5.578125 -7.410156 5.578125 -7.703125 C 5.578125 -8.128906 5.445312 -8.460938 5.1875 -8.703125 C 4.925781 -8.941406 4.53125 -9.0625 4 -9.0625 C 3.488281 -9.0625 3.035156 -8.9375 2.640625 -8.6875 C 2.253906 -8.445312 1.929688 -8.117188 1.671875 -7.703125 L 1.53125 -7.671875 L 0.359375 -8.96875 C 0.742188 -9.53125 1.238281 -9.984375 1.84375 -10.328125 C 2.457031 -10.671875 3.203125 -10.84375 4.078125 -10.84375 C 4.878906 -10.84375 5.550781 -10.710938 6.09375 -10.453125 C 6.632812 -10.191406 7.035156 -9.832031 7.296875 -9.375 C 7.554688 -8.914062 7.6875 -8.394531 7.6875 -7.8125 C 7.6875 -7.300781 7.578125 -6.832031 7.359375 -6.40625 C 7.148438 -5.988281 6.859375 -5.601562 6.484375 -5.25 C 6.109375 -4.894531 5.628906 -4.515625 5.046875 -4.109375 L 3.78125 -3.21875 C 3.394531 -2.945312 3.125 -2.703125 2.96875 -2.484375 C 2.820312 -2.273438 2.75 -2.035156 2.75 -1.765625 L 7.578125 -1.765625 L 7.578125 0 L 0.515625 0 Z M 0.515625 -0.84375 "/></g></g><g transform="translate(213.323037, 54.433895)"><g><path d="M 0.5625 0 L 0.5625 -1.75 L 3.140625 -1.75 L 3.140625 -8.40625 L 2.984375 -8.453125 C 2.609375 -8.273438 2.242188 -8.132812 1.890625 -8.03125 C 1.546875 -7.925781 1.144531 -7.847656 0.6875 -7.796875 L 0.6875 -9.59375 C 1.875 -9.84375 2.832031 -10.210938 3.5625 -10.703125 L 5.234375 -10.703125 L 5.234375 -1.75 L 7.546875 -1.75 L 7.546875 0 Z M 0.5625 0 "/></g></g><g transform="translate(221.218578, 54.433895)"><g><path d="M 4.453125 0.15625 C 3.390625 0.15625 2.539062 -0.0664062 1.90625 -0.515625 C 1.28125 -0.960938 0.875 -1.59375 0.6875 -2.40625 L 2.296875 -3.109375 L 2.453125 -3.078125 C 2.609375 -2.609375 2.84375 -2.253906 3.15625 -2.015625 C 3.46875 -1.773438 3.894531 -1.65625 4.4375 -1.65625 C 4.988281 -1.65625 5.414062 -1.8125 5.71875 -2.125 C 6.019531 -2.445312 6.171875 -2.921875 6.171875 -3.546875 C 6.171875 -4.171875 6.019531 -4.644531 5.71875 -4.96875 C 5.425781 -5.289062 5.019531 -5.453125 4.5 -5.453125 C 4.101562 -5.453125 3.769531 -5.363281 3.5 -5.1875 C 3.238281 -5.019531 3.015625 -4.769531 2.828125 -4.4375 L 1.078125 -4.5625 L 1.296875 -10.703125 L 7.671875 -10.703125 L 7.671875 -8.921875 L 3.078125 -8.921875 L 2.984375 -6.1875 L 3.125 -6.15625 C 3.375 -6.488281 3.671875 -6.738281 4.015625 -6.90625 C 4.367188 -7.070312 4.789062 -7.15625 5.28125 -7.15625 C 5.882812 -7.15625 6.414062 -7.019531 6.875 -6.75 C 7.332031 -6.476562 7.679688 -6.070312 7.921875 -5.53125 C 8.171875 -5 8.296875 -4.347656 8.296875 -3.578125 C 8.296875 -2.796875 8.144531 -2.125 7.84375 -1.5625 C 7.550781 -1.007812 7.113281 -0.582031 6.53125 -0.28125 C 5.957031 0.0078125 5.265625 0.15625 4.453125 0.15625 Z M 4.453125 0.15625 "/></g></g><g transform="translate(230.233691, 54.433895)"><g><path d="M 4.59375 0.15625 C 3.738281 0.15625 3.015625 0.0234375 2.421875 -0.234375 C 1.835938 -0.503906 1.394531 -0.878906 1.09375 -1.359375 C 0.800781 -1.847656 0.65625 -2.429688 0.65625 -3.109375 C 0.65625 -3.722656 0.804688 -4.253906 1.109375 -4.703125 C 1.421875 -5.160156 1.875 -5.519531 2.46875 -5.78125 L 2.46875 -5.9375 C 2.050781 -6.195312 1.726562 -6.503906 1.5 -6.859375 C 1.28125 -7.210938 1.171875 -7.628906 1.171875 -8.109375 C 1.171875 -8.648438 1.300781 -9.125 1.5625 -9.53125 C 1.832031 -9.945312 2.222656 -10.269531 2.734375 -10.5 C 3.253906 -10.726562 3.875 -10.84375 4.59375 -10.84375 C 5.300781 -10.84375 5.910156 -10.726562 6.421875 -10.5 C 6.941406 -10.269531 7.332031 -9.945312 7.59375 -9.53125 C 7.863281 -9.125 8 -8.648438 8 -8.109375 C 8 -7.628906 7.882812 -7.210938 7.65625 -6.859375 C 7.4375 -6.503906 7.113281 -6.195312 6.6875 -5.9375 L 6.6875 -5.78125 C 7.3125 -5.53125 7.769531 -5.175781 8.0625 -4.71875 C 8.363281 -4.257812 8.515625 -3.722656 8.515625 -3.109375 C 8.515625 -2.429688 8.363281 -1.847656 8.0625 -1.359375 C 7.757812 -0.878906 7.316406 -0.503906 6.734375 -0.234375 C 6.148438 0.0234375 5.4375 0.15625 4.59375 0.15625 Z M 4.59375 -6.53125 C 5.007812 -6.53125 5.34375 -6.644531 5.59375 -6.875 C 5.851562 -7.113281 5.984375 -7.441406 5.984375 -7.859375 C 5.984375 -8.273438 5.851562 -8.601562 5.59375 -8.84375 C 5.34375 -9.082031 5.007812 -9.203125 4.59375 -9.203125 C 4.15625 -9.203125 3.8125 -9.082031 3.5625 -8.84375 C 3.3125 -8.613281 3.1875 -8.285156 3.1875 -7.859375 C 3.1875 -7.441406 3.3125 -7.113281 3.5625 -6.875 C 3.8125 -6.644531 4.15625 -6.53125 4.59375 -6.53125 Z M 4.59375 -1.640625 C 5.15625 -1.640625 5.59375 -1.78125 5.90625 -2.0625 C 6.21875 -2.351562 6.375 -2.753906 6.375 -3.265625 C 6.375 -3.773438 6.21875 -4.171875 5.90625 -4.453125 C 5.59375 -4.734375 5.15625 -4.875 4.59375 -4.875 C 4.007812 -4.875 3.5625 -4.734375 3.25 -4.453125 C 2.9375 -4.171875 2.78125 -3.773438 2.78125 -3.265625 C 2.78125 -2.753906 2.9375 -2.351562 3.25 -2.0625 C 3.5625 -1.78125 4.007812 -1.640625 4.59375 -1.640625 Z M 4.59375 -1.640625 "/></g></g><g transform="translate(239.409788, 54.433895)"><g><path d="M 0.515625 -0.84375 C 0.515625 -1.4375 0.578125 -1.9375 0.703125 -2.34375 C 0.835938 -2.75 1.050781 -3.117188 1.34375 -3.453125 C 1.632812 -3.785156 2.050781 -4.144531 2.59375 -4.53125 L 4.015625 -5.5625 C 4.410156 -5.84375 4.710938 -6.082031 4.921875 -6.28125 C 5.140625 -6.488281 5.300781 -6.703125 5.40625 -6.921875 C 5.519531 -7.148438 5.578125 -7.410156 5.578125 -7.703125 C 5.578125 -8.128906 5.445312 -8.460938 5.1875 -8.703125 C 4.925781 -8.941406 4.53125 -9.0625 4 -9.0625 C 3.488281 -9.0625 3.035156 -8.9375 2.640625 -8.6875 C 2.253906 -8.445312 1.929688 -8.117188 1.671875 -7.703125 L 1.53125 -7.671875 L 0.359375 -8.96875 C 0.742188 -9.53125 1.238281 -9.984375 1.84375 -10.328125 C 2.457031 -10.671875 3.203125 -10.84375 4.078125 -10.84375 C 4.878906 -10.84375 5.550781 -10.710938 6.09375 -10.453125 C 6.632812 -10.191406 7.035156 -9.832031 7.296875 -9.375 C 7.554688 -8.914062 7.6875 -8.394531 7.6875 -7.8125 C 7.6875 -7.300781 7.578125 -6.832031 7.359375 -6.40625 C 7.148438 -5.988281 6.859375 -5.601562 6.484375 -5.25 C 6.109375 -4.894531 5.628906 -4.515625 5.046875 -4.109375 L 3.78125 -3.21875 C 3.394531 -2.945312 3.125 -2.703125 2.96875 -2.484375 C 2.820312 -2.273438 2.75 -2.035156 2.75 -1.765625 L 7.578125 -1.765625 L 7.578125 0 L 0.515625 0 Z M 0.515625 -0.84375 "/></g></g><g transform="translate(247.759012, 54.433895)"><g><path d="M 4.359375 0.15625 C 3.210938 0.15625 2.300781 -0.0820312 1.625 -0.5625 C 0.957031 -1.050781 0.53125 -1.742188 0.34375 -2.640625 L 1.953125 -3.375 L 2.125 -3.34375 C 2.300781 -2.757812 2.554688 -2.332031 2.890625 -2.0625 C 3.222656 -1.789062 3.6875 -1.65625 4.28125 -1.65625 C 4.863281 -1.65625 5.304688 -1.785156 5.609375 -2.046875 C 5.910156 -2.316406 6.0625 -2.710938 6.0625 -3.234375 C 6.0625 -3.734375 5.910156 -4.113281 5.609375 -4.375 C 5.304688 -4.644531 4.863281 -4.78125 4.28125 -4.78125 L 2.671875 -4.78125 L 2.671875 -6.4375 L 4.078125 -6.4375 C 4.554688 -6.4375 4.9375 -6.550781 5.21875 -6.78125 C 5.5 -7.019531 5.640625 -7.363281 5.640625 -7.8125 C 5.640625 -8.25 5.503906 -8.578125 5.234375 -8.796875 C 4.972656 -9.023438 4.613281 -9.140625 4.15625 -9.140625 C 3.675781 -9.140625 3.25 -9.023438 2.875 -8.796875 C 2.507812 -8.578125 2.210938 -8.273438 1.984375 -7.890625 L 1.828125 -7.859375 L 0.703125 -9.15625 C 1.078125 -9.664062 1.5625 -10.070312 2.15625 -10.375 C 2.75 -10.6875 3.453125 -10.84375 4.265625 -10.84375 C 5.390625 -10.84375 6.242188 -10.609375 6.828125 -10.140625 C 7.421875 -9.679688 7.71875 -9.023438 7.71875 -8.171875 C 7.71875 -7.660156 7.597656 -7.222656 7.359375 -6.859375 C 7.117188 -6.492188 6.773438 -6.179688 6.328125 -5.921875 L 6.328125 -5.765625 C 7.566406 -5.328125 8.1875 -4.445312 8.1875 -3.125 C 8.1875 -2.46875 8.039062 -1.890625 7.75 -1.390625 C 7.46875 -0.898438 7.039062 -0.519531 6.46875 -0.25 C 5.90625 0.0195312 5.203125 0.15625 4.359375 0.15625 Z M 4.359375 0.15625 "/></g></g><g transform="translate(256.613141, 54.433895)"><g><path d="M 4.453125 0.15625 C 3.390625 0.15625 2.539062 -0.0664062 1.90625 -0.515625 C 1.28125 -0.960938 0.875 -1.59375 0.6875 -2.40625 L 2.296875 -3.109375 L 2.453125 -3.078125 C 2.609375 -2.609375 2.84375 -2.253906 3.15625 -2.015625 C 3.46875 -1.773438 3.894531 -1.65625 4.4375 -1.65625 C 4.988281 -1.65625 5.414062 -1.8125 5.71875 -2.125 C 6.019531 -2.445312 6.171875 -2.921875 6.171875 -3.546875 C 6.171875 -4.171875 6.019531 -4.644531 5.71875 -4.96875 C 5.425781 -5.289062 5.019531 -5.453125 4.5 -5.453125 C 4.101562 -5.453125 3.769531 -5.363281 3.5 -5.1875 C 3.238281 -5.019531 3.015625 -4.769531 2.828125 -4.4375 L 1.078125 -4.5625 L 1.296875 -10.703125 L 7.671875 -10.703125 L 7.671875 -8.921875 L 3.078125 -8.921875 L 2.984375 -6.1875 L 3.125 -6.15625 C 3.375 -6.488281 3.671875 -6.738281 4.015625 -6.90625 C 4.367188 -7.070312 4.789062 -7.15625 5.28125 -7.15625 C 5.882812 -7.15625 6.414062 -7.019531 6.875 -6.75 C 7.332031 -6.476562 7.679688 -6.070312 7.921875 -5.53125 C 8.171875 -5 8.296875 -4.347656 8.296875 -3.578125 C 8.296875 -2.796875 8.144531 -2.125 7.84375 -1.5625 C 7.550781 -1.007812 7.113281 -0.582031 6.53125 -0.28125 C 5.957031 0.0078125 5.265625 0.15625 4.453125 0.15625 Z M 4.453125 0.15625 "/></g></g></g></svg>